G04*
G04 #@! TF.GenerationSoftware,Altium Limited,Altium Designer,23.9.2 (47)*
G04*
G04 Layer_Physical_Order=1*
G04 Layer_Color=255*
%FSLAX25Y25*%
%MOIN*%
G70*
G04*
G04 #@! TF.SameCoordinates,DCBC2596-AC3C-4E21-8B35-2586CF49996E*
G04*
G04*
G04 #@! TF.FilePolarity,Positive*
G04*
G01*
G75*
%ADD10C,0.01000*%
%ADD12C,0.00500*%
%ADD15C,0.03937*%
%ADD16C,0.00984*%
%ADD17R,0.04724X0.05512*%
%ADD18R,0.04724X0.04331*%
%ADD19R,0.06000X0.05600*%
%ADD20R,0.05600X0.06000*%
%ADD21R,0.06500X0.11201*%
%ADD22R,0.03500X0.01654*%
%ADD38C,0.03937*%
%ADD39C,0.03543*%
%ADD40C,0.03543*%
%ADD41C,0.02000*%
%ADD42C,0.03937*%
%ADD43C,0.01968*%
%ADD44C,0.05906*%
%ADD45C,0.14764*%
%ADD46R,0.06000X0.06000*%
%ADD47C,0.06000*%
%ADD48O,0.07874X0.11811*%
%ADD49C,0.23622*%
%ADD50C,0.02500*%
D10*
X187185Y80685D02*
X204000Y97500D01*
X20000Y80685D02*
X187185D01*
X204000Y97500D02*
Y105500D01*
Y120000D02*
Y127500D01*
X113500Y304000D02*
X114000Y303500D01*
X110800D02*
X114000D01*
X113500Y304000D02*
Y311000D01*
X136500Y303500D02*
X139500Y306500D01*
X149513D01*
X151612Y304400D01*
X150780Y299280D02*
X167400D01*
X142500Y297500D02*
X149000D01*
X150780Y299280D01*
X136500Y303500D02*
X142500Y297500D01*
X152215Y295000D02*
X153935Y296720D01*
X136500Y290500D02*
X141000Y295000D01*
X152215D01*
X145081Y301919D02*
X167321D01*
X145000Y302000D02*
X145081Y301919D01*
X167321D02*
X167400Y301840D01*
X244000Y283500D02*
X253500Y293000D01*
Y313500D01*
X204145Y296413D02*
X217058Y283500D01*
X244000D01*
X248789Y278711D02*
X262789D01*
X244000Y283500D02*
X248789Y278711D01*
X262789D02*
X265000Y276500D01*
X279414Y285000D02*
X285000Y279414D01*
X272561Y256061D02*
X285000Y268500D01*
Y279414D01*
X260439Y256061D02*
X272561D01*
X270000Y265500D02*
X274500Y270000D01*
X218500Y265500D02*
X270000D01*
X274500Y270000D02*
Y276500D01*
X229500Y303500D02*
X238500Y312500D01*
X197343Y303500D02*
X229500D01*
X236000Y316297D02*
Y321000D01*
Y316297D02*
X238500Y313797D01*
Y312500D02*
Y313797D01*
X232500Y332000D02*
X236000Y328500D01*
Y321000D02*
Y328500D01*
X232500Y332000D02*
Y337500D01*
X184700Y333300D02*
X201700D01*
X212500Y322500D01*
X184500Y333500D02*
X184700Y333300D01*
X203670Y296413D02*
X204145D01*
X202757Y295500D02*
X203670Y296413D01*
X196785Y295500D02*
X202757D01*
X195565Y296720D02*
X196785Y295500D01*
X332500Y303500D02*
X340000D01*
X136500Y262500D02*
Y290500D01*
X142000Y257000D02*
X147500D01*
X136500Y262500D02*
X142000Y257000D01*
X187500D02*
X195000D01*
X249500Y229000D02*
X264500D01*
X241000Y237500D02*
X249500Y229000D01*
X257939Y256061D02*
X260439D01*
X257000Y257000D02*
X257939Y256061D01*
X260439D02*
X265000Y251500D01*
X133144Y354356D02*
X164356D01*
X165500Y355500D01*
X133000Y354500D02*
X133144Y354356D01*
X114000Y303500D02*
X136500D01*
X192400Y291600D02*
X218500Y265500D01*
X98952Y292548D02*
X99848D01*
X110800Y303500D01*
X151612Y304400D02*
X167400D01*
X99250Y282750D02*
X99500Y283000D01*
X106000D01*
X153935Y296720D02*
X167400D01*
X156500Y289500D02*
X158600Y291600D01*
X167400D01*
X204000Y257000D02*
X217000D01*
X275000Y285000D02*
X279414D01*
X274500Y285500D02*
X275000Y285000D01*
X196515Y305500D02*
X214000D01*
X184650Y304400D02*
X195415D01*
X199000Y290000D02*
X203500D01*
X184760Y294000D02*
X195000D01*
X184600Y291600D02*
X192400D01*
X184600Y301840D02*
X195683D01*
X184600Y299280D02*
X198780D01*
X184600Y296720D02*
X195565D01*
X198780Y299280D02*
X199000Y299500D01*
X195415Y304400D02*
X196515Y305500D01*
X195000Y294000D02*
X199000Y290000D01*
X195683Y301840D02*
X197343Y303500D01*
X179713Y316787D02*
X185000Y311500D01*
X166787Y316787D02*
X179713D01*
X185000Y304750D02*
Y311500D01*
X171500Y343000D02*
X184000D01*
X184500Y342500D01*
X165500Y349000D02*
X171500Y343000D01*
X165500Y349000D02*
Y355500D01*
X214000Y305500D02*
X221000Y312500D01*
X184600Y294160D02*
X184760Y294000D01*
X184600Y304400D02*
X184650D01*
X185000Y304750D01*
X165500Y315500D02*
X166787Y316787D01*
X349000Y303500D02*
X349185Y303315D01*
X374000D01*
X221000Y312500D02*
X222000D01*
X265000Y285500D02*
X274500D01*
X265000D02*
Y296000D01*
X0Y0D02*
Y393701D01*
X393701D01*
Y0D02*
Y393701D01*
X0Y0D02*
X393701D01*
D12*
X224075Y120000D02*
X232500D01*
X227500Y115000D02*
X235000D01*
X240000Y120000D01*
X224075Y118425D02*
X227500Y115000D01*
X204000Y105894D02*
X208106Y110000D01*
X212482D01*
X204000Y105500D02*
Y105894D01*
X208606Y130000D02*
X212482D01*
X204000Y134606D02*
X208606Y130000D01*
X204000Y134606D02*
Y135000D01*
X222500Y121575D02*
Y135000D01*
Y105000D02*
Y118425D01*
X212482Y110000D02*
X220907Y118425D01*
X220925D01*
X204000Y120000D02*
X220925D01*
X212482Y130000D02*
X220907Y121575D01*
X220925D01*
D15*
X46500Y306500D02*
D03*
X217500Y338000D02*
D03*
X113500Y311000D02*
D03*
X114000Y272500D02*
D03*
X265000Y251500D02*
D03*
X264500Y229000D02*
D03*
X232500Y337500D02*
D03*
X133000Y354500D02*
D03*
D16*
X224075Y118425D02*
D03*
X222500D02*
D03*
X220925D02*
D03*
X224075Y120000D02*
D03*
X222500D02*
D03*
X220925D02*
D03*
X224075Y121575D02*
D03*
X222500D02*
D03*
X220925D02*
D03*
D17*
X196000Y135000D02*
D03*
X204000D02*
D03*
X196000Y120000D02*
D03*
X204000D02*
D03*
Y105500D02*
D03*
X196000D02*
D03*
D18*
X222500Y105000D02*
D03*
X214500D02*
D03*
Y135000D02*
D03*
X222500D02*
D03*
D19*
X204000Y257000D02*
D03*
X195000D02*
D03*
X227000Y321000D02*
D03*
X236000D02*
D03*
X99000Y272500D02*
D03*
X90000D02*
D03*
X340000Y303500D02*
D03*
X349000D02*
D03*
D20*
X156500Y289500D02*
D03*
Y280500D02*
D03*
X265000Y305000D02*
D03*
Y296000D02*
D03*
X184500Y333500D02*
D03*
Y342500D02*
D03*
X265000Y285500D02*
D03*
Y276500D02*
D03*
X274500Y285500D02*
D03*
Y276500D02*
D03*
X99500Y292000D02*
D03*
Y283000D02*
D03*
D21*
X176000Y298000D02*
D03*
D22*
X167705Y301839D02*
D03*
Y299279D02*
D03*
Y296721D02*
D03*
Y294161D02*
D03*
Y291602D02*
D03*
Y304398D02*
D03*
X184295Y301839D02*
D03*
Y299279D02*
D03*
Y296721D02*
D03*
Y294161D02*
D03*
Y291602D02*
D03*
Y304398D02*
D03*
D38*
X20000Y204500D02*
X38000Y222500D01*
X58000D02*
X66000Y230500D01*
X38000Y222500D02*
X58000D01*
X77500Y272500D02*
X90000D01*
X66000Y284000D02*
X77500Y272500D01*
X66000Y284000D02*
Y306500D01*
X57657Y314843D02*
X66000Y306500D01*
X20000Y314843D02*
X57657D01*
X20000Y135343D02*
Y204500D01*
D39*
X74000Y222500D02*
X148500D01*
X27675Y293011D02*
X27686Y293000D01*
X20000Y295158D02*
X22147Y293011D01*
X27675D01*
X27686Y293000D02*
X46500D01*
X331000Y215000D02*
X349000Y233000D01*
X223500Y215000D02*
X331000D01*
X216000Y222500D02*
X223500Y215000D01*
X216000Y222500D02*
X231000Y237500D01*
X181000Y222500D02*
X216000D01*
X176000Y227500D02*
X181000Y222500D01*
X176000Y227500D02*
Y298000D01*
X171000Y222500D02*
X176000Y227500D01*
X164500Y222500D02*
X171000D01*
X156500Y230500D02*
X164500Y222500D01*
X156500Y230500D02*
Y280500D01*
X148500Y222500D02*
X156500Y230500D01*
X99250Y272750D02*
Y282750D01*
X86952Y292548D02*
X98952D01*
X86500Y293000D02*
X86952Y292548D01*
D40*
X66000Y230500D02*
Y261000D01*
Y230500D02*
X74000Y222500D01*
X66000Y261000D02*
X77500Y272500D01*
D41*
X46500Y293000D02*
Y306500D01*
X240000Y120000D02*
Y157500D01*
Y108000D02*
Y120000D01*
X246500Y164000D02*
X339500D01*
X217500D02*
X246500D01*
X240000Y157500D02*
X246500Y164000D01*
X227000Y95000D02*
X240000Y108000D01*
X217000Y95000D02*
X227000D01*
X196000Y112500D02*
Y120000D01*
Y105500D02*
Y112500D01*
X20000Y115657D02*
X41842D01*
X45000Y112500D01*
X196000D01*
X222500Y135000D02*
Y142500D01*
X214500Y97500D02*
X217000Y95000D01*
X196000Y135000D02*
Y160000D01*
X200000Y164000D02*
X211500D01*
X196000Y160000D02*
X200000Y164000D01*
X214500Y161000D02*
X217500Y164000D01*
X211500D02*
X214500Y161000D01*
Y135000D02*
Y161000D01*
X339500Y164000D02*
X347500Y172000D01*
X214500Y97500D02*
Y105000D01*
D42*
X347500Y172000D02*
X355343Y164157D01*
X374000D01*
X347500Y172000D02*
Y197158D01*
X374000Y223657D01*
X265000Y305000D02*
X276000D01*
X298000Y283000D01*
X339500D02*
X349000Y273500D01*
X298000Y283000D02*
X339500D01*
X349000Y233000D02*
Y273500D01*
X359130Y283630D02*
X374000D01*
X349000Y273500D02*
X359130Y283630D01*
X358343Y223657D02*
X374000D01*
X349000Y233000D02*
X358343Y223657D01*
D43*
X222251Y312751D02*
Y316451D01*
X222000Y312500D02*
X222251Y312751D01*
Y316451D02*
X226800Y321000D01*
X227000D01*
X224984Y322816D02*
X226800Y321000D01*
X217500Y330500D02*
X224984Y323016D01*
X217500Y330500D02*
Y338000D01*
X224984Y322816D02*
Y323016D01*
X99250Y272750D02*
X99500Y272500D01*
X114000D01*
D44*
X46500Y293000D02*
D03*
X86500D02*
D03*
X238500Y312500D02*
D03*
Y272500D02*
D03*
X253500Y313500D02*
D03*
Y273500D02*
D03*
X222000Y272500D02*
D03*
Y312500D02*
D03*
X257000Y257000D02*
D03*
X217000D02*
D03*
D45*
X20000Y115657D02*
D03*
Y135343D02*
D03*
X374000Y183843D02*
D03*
Y164157D02*
D03*
X20000Y61000D02*
D03*
Y80685D02*
D03*
X374000Y243342D02*
D03*
Y223657D02*
D03*
Y303315D02*
D03*
Y323000D02*
D03*
Y283630D02*
D03*
X20000Y314843D02*
D03*
Y295158D02*
D03*
D46*
X241000Y237500D02*
D03*
D47*
X231000D02*
D03*
D48*
X165500Y317256D02*
D03*
Y351744D02*
D03*
D49*
X374016Y19685D02*
D03*
X19685Y374016D02*
D03*
Y19685D02*
D03*
X374016Y374016D02*
D03*
D50*
X204000Y127500D02*
D03*
X196000Y112500D02*
D03*
X232500Y120000D02*
D03*
X222500Y142500D02*
D03*
X145000Y302000D02*
D03*
X212500Y322500D02*
D03*
X199000Y299500D02*
D03*
X332500Y303500D02*
D03*
X147500Y257000D02*
D03*
X187500D02*
D03*
X106000Y283000D02*
D03*
X204145Y296413D02*
D03*
X203500Y290000D02*
D03*
X210500Y296500D02*
D03*
M02*
