G04*
G04 #@! TF.GenerationSoftware,Altium Limited,Altium Designer,23.9.2 (47)*
G04*
G04 Layer_Physical_Order=2*
G04 Layer_Color=16711680*
%FSLAX25Y25*%
%MOIN*%
G70*
G04*
G04 #@! TF.SameCoordinates,DCBC2596-AC3C-4E21-8B35-2586CF49996E*
G04*
G04*
G04 #@! TF.FilePolarity,Positive*
G04*
G01*
G75*
%ADD10C,0.01000*%
%ADD12C,0.00500*%
%ADD19R,0.06000X0.05600*%
%ADD39C,0.03543*%
%ADD41C,0.02000*%
%ADD42C,0.03937*%
%ADD43C,0.01968*%
%ADD44C,0.05906*%
%ADD45C,0.14764*%
%ADD46R,0.06000X0.06000*%
%ADD47C,0.06000*%
%ADD48O,0.07874X0.11811*%
%ADD49C,0.23622*%
%ADD50C,0.02500*%
%ADD51R,0.21260X0.11417*%
%ADD52R,0.10236X0.09449*%
%ADD53R,0.09449X0.10236*%
D10*
X20000Y61000D02*
X124500D01*
X191000Y127500D01*
X204000D01*
X126000Y283000D02*
X145000Y302000D01*
X106000Y283000D02*
X126000D01*
X204145Y314145D02*
X212500Y322500D01*
X204145Y296413D02*
Y314145D01*
X187709Y348780D02*
X195220D01*
X199000Y345000D01*
X182500Y353988D02*
X187709Y348780D01*
X199000Y299500D02*
Y345000D01*
X210500Y296500D02*
Y313000D01*
X226500Y329000D02*
X293500D01*
X210500Y313000D02*
X226500Y329000D01*
X204760Y290785D02*
X204785D01*
X210500Y296500D01*
X203500Y290000D02*
X203975D01*
X204760Y290785D01*
X319000Y303500D02*
X332500D01*
X293500Y329000D02*
X319000Y303500D01*
X147500Y257000D02*
X187500D01*
X0Y0D02*
Y393701D01*
X393701D01*
Y0D02*
Y393701D01*
X0Y0D02*
X393701D01*
D12*
X225000Y112500D02*
X232500Y120000D01*
X196000Y112500D02*
X225000D01*
D19*
X240000Y227500D02*
D03*
X231000D02*
D03*
D39*
X222000Y272500D02*
Y283343D01*
X238250Y303148D02*
Y312250D01*
X238500Y312500D01*
X238000Y302898D02*
X238250Y303148D01*
X222000Y302240D02*
Y312500D01*
X75750Y292750D02*
X86250D01*
X86500Y293000D01*
X75500Y292500D02*
X75750Y292750D01*
X46750D02*
X56352D01*
X56602Y292500D01*
X46500Y293000D02*
X46750Y292750D01*
D41*
X301000Y142500D02*
X342342Y183843D01*
X374000D01*
X222500Y142500D02*
X301000D01*
D42*
X349500Y267843D02*
X374000Y243342D01*
X349500Y267843D02*
Y315000D01*
X357500Y323000D02*
X374000D01*
X349500Y315000D02*
X357500Y323000D01*
X253500Y302898D02*
Y313500D01*
Y273500D02*
Y284000D01*
X238250Y272750D02*
Y283750D01*
X238000Y284000D02*
X238250Y283750D01*
Y272750D02*
X238500Y272500D01*
X238000Y284000D02*
X253500D01*
X349843Y243342D02*
X374000D01*
X344000Y237500D02*
X349843Y243342D01*
X241000Y237500D02*
X344000D01*
X231000D02*
Y263500D01*
X222000Y272500D02*
X231000Y263500D01*
Y227500D02*
Y237500D01*
X240500Y228000D02*
Y237000D01*
X240000Y227500D02*
X240500Y228000D01*
Y237000D02*
X241000Y237500D01*
X165500Y355185D02*
Y355500D01*
Y355185D02*
X167319Y353366D01*
X181878D01*
X182500Y353988D01*
X165500Y315500D02*
X166634Y316634D01*
X180878D01*
X182500Y315012D01*
D43*
X253894Y302898D02*
X257634Y299158D01*
Y298764D02*
X264500Y291898D01*
X253500Y302898D02*
X253894D01*
X257634Y298764D02*
Y299158D01*
X264500Y271000D02*
Y291898D01*
X259500Y266000D02*
X264500Y271000D01*
X251000Y266000D02*
X259500D01*
X241000Y256000D02*
X251000Y266000D01*
X241000Y237500D02*
Y256000D01*
D44*
X46500Y293000D02*
D03*
X86500D02*
D03*
X238500Y312500D02*
D03*
Y272500D02*
D03*
X253500Y313500D02*
D03*
Y273500D02*
D03*
X222000Y272500D02*
D03*
Y312500D02*
D03*
X257000Y257000D02*
D03*
X217000D02*
D03*
D45*
X20000Y115657D02*
D03*
Y135343D02*
D03*
X374000Y183843D02*
D03*
Y164157D02*
D03*
X20000Y61000D02*
D03*
Y80685D02*
D03*
X374000Y243342D02*
D03*
Y223657D02*
D03*
Y303315D02*
D03*
Y323000D02*
D03*
Y283630D02*
D03*
X20000Y314843D02*
D03*
Y295158D02*
D03*
D46*
X241000Y237500D02*
D03*
D47*
X231000D02*
D03*
D48*
X165500Y317256D02*
D03*
Y351744D02*
D03*
D49*
X374016Y19685D02*
D03*
X19685Y374016D02*
D03*
Y19685D02*
D03*
X374016Y374016D02*
D03*
D50*
X204000Y127500D02*
D03*
X196000Y112500D02*
D03*
X232500Y120000D02*
D03*
X222500Y142500D02*
D03*
X145000Y302000D02*
D03*
X212500Y322500D02*
D03*
X199000Y299500D02*
D03*
X332500Y303500D02*
D03*
X147500Y257000D02*
D03*
X187500D02*
D03*
X106000Y283000D02*
D03*
X204145Y296413D02*
D03*
X203500Y290000D02*
D03*
X210500Y296500D02*
D03*
D51*
X182500Y353988D02*
D03*
Y315012D02*
D03*
D52*
X253500Y284100D02*
D03*
Y302998D02*
D03*
X238000Y301998D02*
D03*
Y283100D02*
D03*
X222000Y302035D02*
D03*
Y283138D02*
D03*
D53*
X76000Y292500D02*
D03*
X57102D02*
D03*
M02*
