M48
;Layer_Color=9474304
;FILE_FORMAT=2:4
INCH,TZ
;TYPE=PLATED
T01F00S00C0.0100
T02F00S00C0.0300
T03F00S00C0.0400
T04F00S00C0.0512
T05F00S00C0.1417
%
T01
X19600Y11250
X20400Y12750
X23250Y12000
X10600Y28300
X14750Y25700
X18750
X22250Y14250
X33250Y30350
X21050Y29650
X20414Y29641
X20350Y29000
X19900Y29950
X21250Y32250
X14500Y30200
T02
X23100Y23750
X24100
X16550Y31450
Y35450
T03
X21700Y25700
X22200Y27250
X23850
X25350Y27350
X25700Y25700
X25350Y31350
X23850Y31250
X22200
X8650Y29300
X4650
T04
X2000Y6100
Y8069
Y11566
Y13534
X37400Y16416
Y18384
Y22366
Y24334
Y28363
Y30331
Y32300
X2000Y31484
Y29516
T05
X37402Y1969
X1969
X37402Y37402
X1969
M30
