G04*
G04 #@! TF.GenerationSoftware,Altium Limited,Altium Designer,23.9.2 (47)*
G04*
G04 Layer_Color=65535*
%FSLAX25Y25*%
%MOIN*%
G70*
G04*
G04 #@! TF.SameCoordinates,DCBC2596-AC3C-4E21-8B35-2586CF49996E*
G04*
G04*
G04 #@! TF.FilePolarity,Positive*
G04*
G01*
G75*
%ADD10C,0.01000*%
%ADD11C,0.00787*%
%ADD12C,0.00500*%
%ADD13R,0.05000X0.10000*%
%ADD14R,0.10000X0.05000*%
G36*
X21417Y271500D02*
X19500D01*
Y272120D01*
X21417D01*
Y271500D01*
D02*
G37*
G36*
X374917Y207000D02*
X373000D01*
Y207620D01*
X374917D01*
Y207000D01*
D02*
G37*
G36*
X374417Y267500D02*
X372500D01*
Y268120D01*
X374417D01*
Y267500D01*
D02*
G37*
G36*
X373954Y339461D02*
X375324D01*
Y338885D01*
X373954D01*
Y337500D01*
X373371D01*
Y338885D01*
X372000D01*
Y339461D01*
X373371D01*
Y340831D01*
X373954D01*
Y339461D01*
D02*
G37*
G36*
X374454Y256961D02*
X375824D01*
Y256385D01*
X374454D01*
Y255000D01*
X373870D01*
Y256385D01*
X372500D01*
Y256961D01*
X373870D01*
Y258331D01*
X374454D01*
Y256961D01*
D02*
G37*
G36*
X19954Y333461D02*
X21324D01*
Y332885D01*
X19954D01*
Y331500D01*
X19371D01*
Y332885D01*
X18000D01*
Y333461D01*
X19371D01*
Y334832D01*
X19954D01*
Y333461D01*
D02*
G37*
G36*
X166000Y184500D02*
X57000D01*
Y214654D01*
X166000D01*
Y184500D01*
D02*
G37*
G36*
X30909Y185040D02*
X30201D01*
Y185747D01*
X30909D01*
Y185040D01*
D02*
G37*
G36*
X41916Y182088D02*
X41224D01*
X38585Y186046D01*
Y182088D01*
X37943D01*
Y187132D01*
X38629D01*
X41275Y183166D01*
Y187132D01*
X41916D01*
Y182088D01*
D02*
G37*
G36*
X36864D02*
X36223D01*
Y186308D01*
X34750Y182088D01*
X34153D01*
X32695Y186381D01*
Y182088D01*
X32053D01*
Y187132D01*
X33052D01*
X34247Y183553D01*
Y183545D01*
X34255Y183531D01*
X34262Y183509D01*
X34277Y183473D01*
X34306Y183385D01*
X34342Y183276D01*
X34379Y183152D01*
X34422Y183028D01*
X34459Y182911D01*
X34488Y182809D01*
X34495Y182824D01*
X34503Y182860D01*
X34524Y182926D01*
X34554Y183013D01*
X34590Y183130D01*
X34641Y183268D01*
X34692Y183429D01*
X34758Y183618D01*
X35968Y187132D01*
X36864D01*
Y182088D01*
D02*
G37*
G36*
X22729Y184216D02*
Y184209D01*
Y184180D01*
Y184143D01*
Y184092D01*
X22722Y184027D01*
Y183954D01*
X22715Y183866D01*
X22707Y183779D01*
X22685Y183582D01*
X22656Y183378D01*
X22613Y183181D01*
X22583Y183086D01*
X22554Y182999D01*
Y182991D01*
X22547Y182977D01*
X22532Y182955D01*
X22518Y182926D01*
X22474Y182846D01*
X22408Y182744D01*
X22321Y182627D01*
X22219Y182510D01*
X22088Y182386D01*
X21927Y182277D01*
X21920D01*
X21905Y182262D01*
X21883Y182255D01*
X21847Y182233D01*
X21803Y182211D01*
X21745Y182190D01*
X21687Y182168D01*
X21614Y182139D01*
X21534Y182109D01*
X21446Y182088D01*
X21351Y182066D01*
X21242Y182044D01*
X21133Y182029D01*
X21016Y182015D01*
X20754Y182000D01*
X20688D01*
X20637Y182007D01*
X20579D01*
X20506Y182015D01*
X20425Y182022D01*
X20345Y182029D01*
X20163Y182058D01*
X19966Y182102D01*
X19777Y182160D01*
X19594Y182241D01*
X19587D01*
X19573Y182255D01*
X19551Y182270D01*
X19522Y182284D01*
X19441Y182343D01*
X19347Y182423D01*
X19237Y182525D01*
X19135Y182641D01*
X19033Y182787D01*
X18953Y182948D01*
Y182955D01*
X18946Y182970D01*
X18938Y182999D01*
X18924Y183035D01*
X18909Y183079D01*
X18895Y183137D01*
X18873Y183203D01*
X18858Y183283D01*
X18844Y183370D01*
X18822Y183465D01*
X18807Y183567D01*
X18792Y183677D01*
X18778Y183801D01*
X18771Y183932D01*
X18763Y184070D01*
Y184216D01*
Y187132D01*
X19434D01*
Y184216D01*
Y184209D01*
Y184187D01*
Y184151D01*
Y184107D01*
X19441Y184056D01*
Y183990D01*
X19449Y183852D01*
X19463Y183691D01*
X19485Y183531D01*
X19514Y183378D01*
X19529Y183312D01*
X19551Y183247D01*
X19558Y183232D01*
X19573Y183196D01*
X19609Y183144D01*
X19653Y183072D01*
X19704Y182999D01*
X19777Y182919D01*
X19864Y182838D01*
X19966Y182773D01*
X19981Y182765D01*
X20017Y182744D01*
X20083Y182722D01*
X20170Y182693D01*
X20272Y182656D01*
X20404Y182634D01*
X20542Y182612D01*
X20695Y182605D01*
X20768D01*
X20812Y182612D01*
X20877D01*
X20943Y182620D01*
X21103Y182649D01*
X21278Y182685D01*
X21446Y182744D01*
X21607Y182824D01*
X21679Y182875D01*
X21745Y182933D01*
X21752Y182940D01*
X21760Y182948D01*
X21774Y182970D01*
X21796Y182999D01*
X21818Y183043D01*
X21847Y183086D01*
X21876Y183152D01*
X21905Y183217D01*
X21935Y183298D01*
X21956Y183392D01*
X21986Y183502D01*
X22007Y183618D01*
X22029Y183750D01*
X22044Y183888D01*
X22059Y184048D01*
Y184216D01*
Y187132D01*
X22729D01*
Y184216D01*
D02*
G37*
G36*
X45219Y187125D02*
X45343Y187118D01*
X45474Y187110D01*
X45598Y187096D01*
X45707Y187081D01*
X45722D01*
X45773Y187067D01*
X45838Y187052D01*
X45926Y187030D01*
X46021Y186994D01*
X46123Y186950D01*
X46232Y186899D01*
X46327Y186841D01*
X46341Y186833D01*
X46371Y186811D01*
X46414Y186768D01*
X46473Y186717D01*
X46538Y186651D01*
X46604Y186564D01*
X46677Y186469D01*
X46735Y186359D01*
X46742Y186345D01*
X46757Y186308D01*
X46786Y186243D01*
X46815Y186155D01*
X46837Y186053D01*
X46866Y185937D01*
X46881Y185805D01*
X46888Y185667D01*
Y185660D01*
Y185638D01*
Y185608D01*
X46881Y185557D01*
X46874Y185506D01*
X46866Y185441D01*
X46852Y185368D01*
X46837Y185288D01*
X46786Y185120D01*
X46757Y185033D01*
X46713Y184938D01*
X46662Y184843D01*
X46611Y184756D01*
X46546Y184668D01*
X46473Y184581D01*
X46465Y184573D01*
X46451Y184559D01*
X46429Y184537D01*
X46393Y184515D01*
X46349Y184479D01*
X46290Y184442D01*
X46218Y184398D01*
X46137Y184362D01*
X46043Y184318D01*
X45933Y184274D01*
X45817Y184238D01*
X45678Y184209D01*
X45532Y184180D01*
X45372Y184158D01*
X45190Y184143D01*
X45000Y184136D01*
X43710D01*
Y182088D01*
X43039D01*
Y187132D01*
X45109D01*
X45219Y187125D01*
D02*
G37*
G36*
X30909Y182088D02*
X30201D01*
Y182795D01*
X30909D01*
Y182088D01*
D02*
G37*
G36*
X28955D02*
X28248D01*
Y182795D01*
X28955D01*
Y182088D01*
D02*
G37*
G36*
X27460Y186534D02*
X25798D01*
Y182088D01*
X25128D01*
Y186534D01*
X23465D01*
Y187132D01*
X27460D01*
Y186534D01*
D02*
G37*
G36*
X18217Y182088D02*
X17458D01*
X16868Y183618D01*
X14754D01*
X14207Y182088D01*
X13500D01*
X15425Y187132D01*
X16154D01*
X18217Y182088D01*
D02*
G37*
G36*
X30741Y194373D02*
X30034D01*
Y195080D01*
X30741D01*
Y194373D01*
D02*
G37*
G36*
X43360Y191421D02*
X42718D01*
Y195642D01*
X41246Y191421D01*
X40648D01*
X39190Y195715D01*
Y191421D01*
X38548D01*
Y196466D01*
X39547D01*
X40743Y192886D01*
Y192879D01*
X40750Y192864D01*
X40757Y192842D01*
X40772Y192806D01*
X40801Y192718D01*
X40837Y192609D01*
X40874Y192485D01*
X40918Y192361D01*
X40954Y192245D01*
X40983Y192142D01*
X40991Y192157D01*
X40998Y192194D01*
X41020Y192259D01*
X41049Y192347D01*
X41085Y192463D01*
X41136Y192602D01*
X41187Y192762D01*
X41253Y192952D01*
X42463Y196466D01*
X43360D01*
Y191421D01*
D02*
G37*
G36*
X25412D02*
X24712D01*
X22758Y196466D01*
X23487D01*
X24800Y192799D01*
Y192791D01*
X24807Y192777D01*
X24814Y192755D01*
X24829Y192726D01*
X24836Y192682D01*
X24850Y192638D01*
X24887Y192529D01*
X24931Y192405D01*
X24974Y192266D01*
X25062Y191975D01*
Y191982D01*
X25069Y191997D01*
X25076Y192019D01*
X25084Y192048D01*
X25106Y192128D01*
X25142Y192237D01*
X25179Y192361D01*
X25222Y192500D01*
X25273Y192646D01*
X25332Y192799D01*
X26702Y196466D01*
X27380D01*
X25412Y191421D01*
D02*
G37*
G36*
X38031D02*
X37273D01*
X36682Y192952D01*
X34568D01*
X34021Y191421D01*
X33314D01*
X35239Y196466D01*
X35968D01*
X38031Y191421D01*
D02*
G37*
G36*
X30741D02*
X30034D01*
Y192128D01*
X30741D01*
Y191421D01*
D02*
G37*
G36*
X28787D02*
X28080D01*
Y192128D01*
X28787D01*
Y191421D01*
D02*
G37*
G36*
X22241Y195868D02*
X19259D01*
Y194330D01*
X22051D01*
Y193732D01*
X19259D01*
Y192019D01*
X22357D01*
Y191421D01*
X18588D01*
Y196466D01*
X22241D01*
Y195868D01*
D02*
G37*
G36*
X15898Y196458D02*
X15964D01*
X16117Y196451D01*
X16277Y196429D01*
X16452Y196407D01*
X16613Y196371D01*
X16693Y196349D01*
X16759Y196327D01*
X16766D01*
X16773Y196320D01*
X16817Y196298D01*
X16883Y196269D01*
X16963Y196218D01*
X17050Y196152D01*
X17145Y196064D01*
X17233Y195963D01*
X17320Y195846D01*
Y195839D01*
X17327Y195831D01*
X17356Y195788D01*
X17386Y195715D01*
X17429Y195620D01*
X17466Y195510D01*
X17502Y195379D01*
X17524Y195241D01*
X17531Y195088D01*
Y195080D01*
Y195066D01*
Y195037D01*
X17524Y195000D01*
Y194949D01*
X17517Y194898D01*
X17488Y194774D01*
X17444Y194628D01*
X17386Y194475D01*
X17298Y194322D01*
X17240Y194249D01*
X17181Y194176D01*
X17174Y194169D01*
X17167Y194162D01*
X17145Y194140D01*
X17116Y194118D01*
X17079Y194089D01*
X17036Y194060D01*
X16977Y194023D01*
X16919Y193980D01*
X16846Y193943D01*
X16766Y193907D01*
X16678Y193863D01*
X16584Y193826D01*
X16474Y193797D01*
X16365Y193761D01*
X16241Y193739D01*
X16110Y193717D01*
X16124Y193710D01*
X16154Y193695D01*
X16197Y193666D01*
X16256Y193637D01*
X16387Y193557D01*
X16452Y193506D01*
X16511Y193462D01*
X16525Y193447D01*
X16562Y193411D01*
X16620Y193353D01*
X16693Y193280D01*
X16773Y193178D01*
X16868Y193068D01*
X16963Y192937D01*
X17065Y192791D01*
X17932Y191421D01*
X17101D01*
X16438Y192471D01*
Y192478D01*
X16423Y192492D01*
X16409Y192514D01*
X16387Y192543D01*
X16336Y192624D01*
X16270Y192726D01*
X16190Y192835D01*
X16110Y192952D01*
X16030Y193061D01*
X15957Y193163D01*
X15949Y193170D01*
X15928Y193200D01*
X15891Y193243D01*
X15840Y193294D01*
X15731Y193404D01*
X15672Y193455D01*
X15614Y193499D01*
X15607Y193506D01*
X15592Y193513D01*
X15563Y193528D01*
X15519Y193550D01*
X15476Y193571D01*
X15425Y193593D01*
X15308Y193630D01*
X15301D01*
X15286Y193637D01*
X15257D01*
X15220Y193644D01*
X15169Y193651D01*
X15111D01*
X15031Y193659D01*
X14171D01*
Y191421D01*
X13500D01*
Y196466D01*
X15840D01*
X15898Y196458D01*
D02*
G37*
G36*
X46611Y205726D02*
X46706Y205711D01*
X46823Y205690D01*
X46954Y205653D01*
X47085Y205609D01*
X47216Y205551D01*
X47223D01*
X47231Y205544D01*
X47275Y205522D01*
X47340Y205478D01*
X47413Y205427D01*
X47501Y205354D01*
X47588Y205274D01*
X47675Y205179D01*
X47748Y205070D01*
X47756Y205055D01*
X47778Y205019D01*
X47807Y204953D01*
X47843Y204873D01*
X47880Y204778D01*
X47909Y204669D01*
X47931Y204545D01*
X47938Y204421D01*
Y204406D01*
Y204363D01*
X47931Y204304D01*
X47916Y204224D01*
X47894Y204129D01*
X47858Y204027D01*
X47814Y203925D01*
X47756Y203823D01*
X47748Y203809D01*
X47727Y203780D01*
X47683Y203729D01*
X47624Y203670D01*
X47552Y203605D01*
X47464Y203532D01*
X47362Y203466D01*
X47238Y203400D01*
X47245D01*
X47260Y203393D01*
X47282Y203386D01*
X47311Y203379D01*
X47391Y203349D01*
X47493Y203306D01*
X47610Y203247D01*
X47727Y203174D01*
X47836Y203080D01*
X47938Y202970D01*
X47945Y202956D01*
X47974Y202912D01*
X48018Y202839D01*
X48062Y202744D01*
X48106Y202628D01*
X48149Y202489D01*
X48178Y202329D01*
X48186Y202154D01*
Y202147D01*
Y202125D01*
Y202088D01*
X48178Y202045D01*
X48171Y201986D01*
X48157Y201921D01*
X48142Y201848D01*
X48127Y201767D01*
X48069Y201592D01*
X48025Y201498D01*
X47982Y201410D01*
X47923Y201315D01*
X47858Y201221D01*
X47785Y201126D01*
X47697Y201038D01*
X47690Y201031D01*
X47675Y201017D01*
X47646Y200995D01*
X47610Y200966D01*
X47566Y200929D01*
X47508Y200893D01*
X47442Y200849D01*
X47362Y200813D01*
X47282Y200769D01*
X47187Y200725D01*
X47092Y200689D01*
X46983Y200652D01*
X46866Y200623D01*
X46742Y200601D01*
X46619Y200587D01*
X46480Y200579D01*
X46414D01*
X46371Y200587D01*
X46312Y200594D01*
X46247Y200601D01*
X46174Y200616D01*
X46094Y200630D01*
X45919Y200674D01*
X45736Y200747D01*
X45642Y200791D01*
X45554Y200842D01*
X45467Y200907D01*
X45379Y200973D01*
X45372Y200980D01*
X45357Y200995D01*
X45335Y201017D01*
X45314Y201046D01*
X45277Y201082D01*
X45241Y201133D01*
X45197Y201184D01*
X45153Y201250D01*
X45109Y201323D01*
X45066Y201396D01*
X44985Y201571D01*
X44920Y201775D01*
X44898Y201884D01*
X44883Y202001D01*
X45503Y202081D01*
Y202074D01*
X45510Y202059D01*
X45518Y202030D01*
X45525Y201993D01*
X45532Y201950D01*
X45547Y201899D01*
X45583Y201789D01*
X45634Y201658D01*
X45700Y201534D01*
X45773Y201417D01*
X45860Y201315D01*
X45875Y201308D01*
X45904Y201279D01*
X45962Y201243D01*
X46035Y201206D01*
X46123Y201162D01*
X46232Y201126D01*
X46356Y201097D01*
X46487Y201090D01*
X46531D01*
X46560Y201097D01*
X46640Y201104D01*
X46742Y201126D01*
X46859Y201162D01*
X46983Y201213D01*
X47107Y201286D01*
X47223Y201388D01*
X47238Y201403D01*
X47275Y201447D01*
X47318Y201512D01*
X47377Y201600D01*
X47435Y201709D01*
X47479Y201833D01*
X47515Y201979D01*
X47530Y202139D01*
Y202147D01*
Y202161D01*
Y202183D01*
X47522Y202212D01*
X47515Y202292D01*
X47493Y202387D01*
X47464Y202504D01*
X47413Y202620D01*
X47340Y202737D01*
X47245Y202846D01*
X47231Y202861D01*
X47194Y202890D01*
X47136Y202934D01*
X47056Y202985D01*
X46954Y203036D01*
X46830Y203080D01*
X46691Y203109D01*
X46538Y203123D01*
X46473D01*
X46422Y203116D01*
X46356Y203109D01*
X46283Y203094D01*
X46196Y203080D01*
X46101Y203058D01*
X46174Y203605D01*
X46210D01*
X46239Y203597D01*
X46334D01*
X46414Y203612D01*
X46509Y203626D01*
X46619Y203648D01*
X46742Y203685D01*
X46859Y203736D01*
X46983Y203801D01*
X46990D01*
X46998Y203809D01*
X47034Y203838D01*
X47085Y203889D01*
X47143Y203954D01*
X47202Y204049D01*
X47253Y204159D01*
X47289Y204282D01*
X47304Y204355D01*
Y204436D01*
Y204443D01*
Y204450D01*
Y204494D01*
X47289Y204552D01*
X47275Y204632D01*
X47245Y204720D01*
X47209Y204815D01*
X47151Y204909D01*
X47070Y204997D01*
X47063Y205004D01*
X47027Y205033D01*
X46976Y205070D01*
X46910Y205114D01*
X46823Y205150D01*
X46720Y205187D01*
X46604Y205216D01*
X46473Y205223D01*
X46414D01*
X46349Y205208D01*
X46261Y205194D01*
X46167Y205165D01*
X46072Y205128D01*
X45970Y205070D01*
X45875Y204997D01*
X45868Y204990D01*
X45838Y204953D01*
X45795Y204902D01*
X45744Y204829D01*
X45693Y204734D01*
X45642Y204618D01*
X45598Y204479D01*
X45569Y204319D01*
X44949Y204428D01*
Y204436D01*
X44956Y204457D01*
X44964Y204487D01*
X44971Y204530D01*
X44985Y204581D01*
X45007Y204640D01*
X45051Y204778D01*
X45124Y204939D01*
X45211Y205099D01*
X45321Y205252D01*
X45459Y205391D01*
X45467Y205398D01*
X45481Y205405D01*
X45503Y205420D01*
X45532Y205442D01*
X45569Y205471D01*
X45620Y205500D01*
X45671Y205529D01*
X45736Y205566D01*
X45882Y205624D01*
X46050Y205682D01*
X46247Y205719D01*
X46349Y205733D01*
X46531D01*
X46611Y205726D01*
D02*
G37*
G36*
X19091D02*
X19128D01*
X19179Y205719D01*
X19303Y205697D01*
X19441Y205668D01*
X19594Y205617D01*
X19748Y205551D01*
X19901Y205464D01*
X19908D01*
X19915Y205449D01*
X19937Y205434D01*
X19966Y205412D01*
X20039Y205354D01*
X20134Y205274D01*
X20229Y205165D01*
X20338Y205033D01*
X20433Y204880D01*
X20520Y204705D01*
Y204698D01*
X20528Y204683D01*
X20542Y204654D01*
X20557Y204618D01*
X20571Y204567D01*
X20593Y204501D01*
X20608Y204428D01*
X20630Y204348D01*
X20651Y204253D01*
X20673Y204144D01*
X20688Y204027D01*
X20703Y203903D01*
X20717Y203765D01*
X20732Y203619D01*
X20739Y203459D01*
Y203291D01*
Y203284D01*
Y203247D01*
Y203196D01*
Y203131D01*
X20732Y203050D01*
Y202956D01*
X20724Y202846D01*
X20710Y202737D01*
X20688Y202489D01*
X20651Y202227D01*
X20601Y201979D01*
X20564Y201855D01*
X20528Y201746D01*
Y201738D01*
X20520Y201724D01*
X20506Y201695D01*
X20491Y201651D01*
X20469Y201607D01*
X20440Y201549D01*
X20367Y201425D01*
X20280Y201286D01*
X20178Y201140D01*
X20046Y201002D01*
X19901Y200878D01*
X19893D01*
X19879Y200864D01*
X19857Y200849D01*
X19828Y200834D01*
X19784Y200813D01*
X19740Y200783D01*
X19682Y200754D01*
X19624Y200732D01*
X19485Y200674D01*
X19317Y200623D01*
X19135Y200594D01*
X18931Y200579D01*
X18873D01*
X18836Y200587D01*
X18785D01*
X18727Y200594D01*
X18588Y200623D01*
X18435Y200659D01*
X18275Y200718D01*
X18115Y200798D01*
X18034Y200849D01*
X17962Y200907D01*
X17954Y200915D01*
X17947Y200922D01*
X17925Y200944D01*
X17903Y200966D01*
X17874Y201002D01*
X17838Y201046D01*
X17765Y201148D01*
X17692Y201279D01*
X17619Y201439D01*
X17560Y201622D01*
X17517Y201833D01*
X18115Y201884D01*
Y201877D01*
X18122Y201862D01*
Y201848D01*
X18129Y201818D01*
X18151Y201738D01*
X18180Y201651D01*
X18217Y201549D01*
X18268Y201447D01*
X18326Y201352D01*
X18399Y201272D01*
X18406Y201264D01*
X18435Y201243D01*
X18486Y201213D01*
X18545Y201184D01*
X18625Y201148D01*
X18720Y201119D01*
X18829Y201097D01*
X18946Y201090D01*
X18997D01*
X19048Y201097D01*
X19113Y201104D01*
X19194Y201119D01*
X19274Y201140D01*
X19361Y201170D01*
X19441Y201213D01*
X19449Y201221D01*
X19478Y201235D01*
X19522Y201264D01*
X19565Y201308D01*
X19624Y201359D01*
X19682Y201417D01*
X19740Y201483D01*
X19799Y201563D01*
X19806Y201571D01*
X19820Y201607D01*
X19850Y201658D01*
X19879Y201724D01*
X19915Y201811D01*
X19952Y201913D01*
X19988Y202030D01*
X20024Y202161D01*
Y202168D01*
X20032Y202176D01*
Y202198D01*
X20039Y202227D01*
X20054Y202300D01*
X20076Y202394D01*
X20090Y202511D01*
X20105Y202635D01*
X20112Y202773D01*
X20119Y202919D01*
Y202927D01*
Y202948D01*
Y202985D01*
Y203043D01*
X20112Y203029D01*
X20083Y202992D01*
X20039Y202941D01*
X19988Y202868D01*
X19915Y202795D01*
X19828Y202715D01*
X19726Y202635D01*
X19609Y202562D01*
X19594Y202555D01*
X19551Y202533D01*
X19485Y202504D01*
X19405Y202475D01*
X19296Y202438D01*
X19179Y202409D01*
X19048Y202387D01*
X18909Y202380D01*
X18851D01*
X18807Y202387D01*
X18749Y202394D01*
X18690Y202402D01*
X18618Y202416D01*
X18545Y202438D01*
X18377Y202489D01*
X18290Y202526D01*
X18202Y202569D01*
X18107Y202620D01*
X18020Y202686D01*
X17932Y202752D01*
X17852Y202832D01*
X17845Y202839D01*
X17830Y202854D01*
X17816Y202875D01*
X17786Y202912D01*
X17750Y202963D01*
X17714Y203014D01*
X17677Y203080D01*
X17641Y203152D01*
X17597Y203233D01*
X17560Y203320D01*
X17524Y203422D01*
X17488Y203524D01*
X17458Y203641D01*
X17444Y203765D01*
X17429Y203889D01*
X17422Y204027D01*
Y204035D01*
Y204064D01*
Y204100D01*
X17429Y204151D01*
X17437Y204217D01*
X17444Y204297D01*
X17458Y204377D01*
X17480Y204472D01*
X17531Y204662D01*
X17568Y204764D01*
X17612Y204873D01*
X17663Y204975D01*
X17728Y205070D01*
X17794Y205172D01*
X17874Y205259D01*
X17881Y205267D01*
X17896Y205281D01*
X17918Y205303D01*
X17954Y205332D01*
X17998Y205369D01*
X18056Y205412D01*
X18115Y205449D01*
X18188Y205500D01*
X18260Y205544D01*
X18348Y205580D01*
X18545Y205660D01*
X18647Y205690D01*
X18763Y205711D01*
X18880Y205726D01*
X19004Y205733D01*
X19055D01*
X19091Y205726D01*
D02*
G37*
G36*
X42748D02*
X42806Y205719D01*
X42879Y205711D01*
X42959Y205697D01*
X43039Y205682D01*
X43229Y205631D01*
X43418Y205558D01*
X43513Y205515D01*
X43608Y205464D01*
X43695Y205398D01*
X43775Y205325D01*
X43783Y205318D01*
X43797Y205310D01*
X43812Y205281D01*
X43841Y205252D01*
X43877Y205216D01*
X43914Y205165D01*
X43950Y205114D01*
X43994Y205048D01*
X44067Y204909D01*
X44140Y204734D01*
X44169Y204647D01*
X44184Y204545D01*
X44198Y204443D01*
X44205Y204333D01*
Y204319D01*
Y204282D01*
X44198Y204224D01*
X44191Y204144D01*
X44176Y204057D01*
X44147Y203954D01*
X44118Y203845D01*
X44074Y203736D01*
X44067Y203721D01*
X44052Y203685D01*
X44023Y203626D01*
X43979Y203546D01*
X43921Y203459D01*
X43848Y203349D01*
X43761Y203240D01*
X43659Y203116D01*
X43644Y203101D01*
X43608Y203058D01*
X43571Y203021D01*
X43535Y202985D01*
X43491Y202941D01*
X43433Y202883D01*
X43374Y202824D01*
X43301Y202759D01*
X43229Y202686D01*
X43141Y202606D01*
X43046Y202526D01*
X42944Y202431D01*
X42828Y202336D01*
X42711Y202234D01*
X42704Y202227D01*
X42689Y202212D01*
X42660Y202190D01*
X42624Y202161D01*
X42580Y202117D01*
X42529Y202074D01*
X42412Y201979D01*
X42288Y201870D01*
X42172Y201760D01*
X42070Y201665D01*
X42026Y201629D01*
X41989Y201592D01*
X41982Y201585D01*
X41960Y201563D01*
X41931Y201534D01*
X41895Y201490D01*
X41858Y201439D01*
X41814Y201388D01*
X41727Y201264D01*
X44213D01*
Y200667D01*
X40867D01*
Y200674D01*
Y200703D01*
Y200747D01*
X40874Y200805D01*
X40881Y200871D01*
X40896Y200944D01*
X40910Y201017D01*
X40940Y201097D01*
Y201104D01*
X40947Y201111D01*
X40961Y201155D01*
X40991Y201221D01*
X41034Y201308D01*
X41093Y201410D01*
X41166Y201527D01*
X41246Y201643D01*
X41348Y201767D01*
Y201775D01*
X41362Y201782D01*
X41399Y201826D01*
X41464Y201891D01*
X41559Y201986D01*
X41669Y202096D01*
X41807Y202227D01*
X41975Y202373D01*
X42157Y202526D01*
X42164Y202533D01*
X42193Y202555D01*
X42237Y202591D01*
X42288Y202635D01*
X42354Y202693D01*
X42434Y202759D01*
X42514Y202832D01*
X42609Y202912D01*
X42791Y203087D01*
X42974Y203262D01*
X43061Y203349D01*
X43141Y203437D01*
X43214Y203517D01*
X43272Y203597D01*
Y203605D01*
X43287Y203612D01*
X43301Y203634D01*
X43316Y203663D01*
X43367Y203743D01*
X43426Y203838D01*
X43477Y203954D01*
X43527Y204078D01*
X43557Y204217D01*
X43571Y204348D01*
Y204355D01*
Y204363D01*
X43564Y204406D01*
X43557Y204479D01*
X43535Y204559D01*
X43506Y204662D01*
X43455Y204764D01*
X43389Y204866D01*
X43301Y204968D01*
X43287Y204982D01*
X43251Y205012D01*
X43200Y205048D01*
X43119Y205099D01*
X43017Y205143D01*
X42901Y205187D01*
X42762Y205216D01*
X42609Y205223D01*
X42565D01*
X42536Y205216D01*
X42449Y205208D01*
X42347Y205187D01*
X42237Y205157D01*
X42113Y205106D01*
X41997Y205041D01*
X41887Y204953D01*
X41873Y204939D01*
X41844Y204902D01*
X41800Y204844D01*
X41756Y204756D01*
X41705Y204654D01*
X41661Y204523D01*
X41632Y204377D01*
X41618Y204210D01*
X40983Y204275D01*
Y204282D01*
X40991Y204304D01*
Y204341D01*
X40998Y204392D01*
X41012Y204450D01*
X41027Y204516D01*
X41049Y204596D01*
X41071Y204676D01*
X41129Y204851D01*
X41217Y205026D01*
X41268Y205114D01*
X41333Y205201D01*
X41399Y205281D01*
X41472Y205354D01*
X41479Y205361D01*
X41494Y205369D01*
X41515Y205391D01*
X41552Y205412D01*
X41596Y205442D01*
X41647Y205471D01*
X41705Y205507D01*
X41778Y205544D01*
X41858Y205580D01*
X41946Y205617D01*
X42040Y205646D01*
X42142Y205675D01*
X42252Y205697D01*
X42368Y205719D01*
X42492Y205726D01*
X42624Y205733D01*
X42696D01*
X42748Y205726D01*
D02*
G37*
G36*
X34903D02*
X34962Y205719D01*
X35035Y205711D01*
X35115Y205697D01*
X35195Y205682D01*
X35385Y205631D01*
X35574Y205558D01*
X35669Y205515D01*
X35764Y205464D01*
X35851Y205398D01*
X35931Y205325D01*
X35939Y205318D01*
X35953Y205310D01*
X35968Y205281D01*
X35997Y205252D01*
X36033Y205216D01*
X36070Y205165D01*
X36106Y205114D01*
X36150Y205048D01*
X36223Y204909D01*
X36296Y204734D01*
X36325Y204647D01*
X36340Y204545D01*
X36354Y204443D01*
X36361Y204333D01*
Y204319D01*
Y204282D01*
X36354Y204224D01*
X36347Y204144D01*
X36332Y204057D01*
X36303Y203954D01*
X36274Y203845D01*
X36230Y203736D01*
X36223Y203721D01*
X36208Y203685D01*
X36179Y203626D01*
X36135Y203546D01*
X36077Y203459D01*
X36004Y203349D01*
X35917Y203240D01*
X35815Y203116D01*
X35800Y203101D01*
X35764Y203058D01*
X35727Y203021D01*
X35691Y202985D01*
X35647Y202941D01*
X35589Y202883D01*
X35530Y202824D01*
X35458Y202759D01*
X35385Y202686D01*
X35297Y202606D01*
X35202Y202526D01*
X35100Y202431D01*
X34984Y202336D01*
X34867Y202234D01*
X34860Y202227D01*
X34845Y202212D01*
X34816Y202190D01*
X34780Y202161D01*
X34736Y202117D01*
X34685Y202074D01*
X34568Y201979D01*
X34444Y201870D01*
X34328Y201760D01*
X34225Y201665D01*
X34182Y201629D01*
X34145Y201592D01*
X34138Y201585D01*
X34116Y201563D01*
X34087Y201534D01*
X34051Y201490D01*
X34014Y201439D01*
X33970Y201388D01*
X33883Y201264D01*
X36369D01*
Y200667D01*
X33023D01*
Y200674D01*
Y200703D01*
Y200747D01*
X33030Y200805D01*
X33037Y200871D01*
X33052Y200944D01*
X33066Y201017D01*
X33095Y201097D01*
Y201104D01*
X33103Y201111D01*
X33117Y201155D01*
X33147Y201221D01*
X33190Y201308D01*
X33249Y201410D01*
X33321Y201527D01*
X33402Y201643D01*
X33504Y201767D01*
Y201775D01*
X33518Y201782D01*
X33555Y201826D01*
X33620Y201891D01*
X33715Y201986D01*
X33825Y202096D01*
X33963Y202227D01*
X34131Y202373D01*
X34313Y202526D01*
X34320Y202533D01*
X34349Y202555D01*
X34393Y202591D01*
X34444Y202635D01*
X34510Y202693D01*
X34590Y202759D01*
X34670Y202832D01*
X34765Y202912D01*
X34947Y203087D01*
X35129Y203262D01*
X35217Y203349D01*
X35297Y203437D01*
X35370Y203517D01*
X35428Y203597D01*
Y203605D01*
X35443Y203612D01*
X35458Y203634D01*
X35472Y203663D01*
X35523Y203743D01*
X35581Y203838D01*
X35632Y203954D01*
X35684Y204078D01*
X35713Y204217D01*
X35727Y204348D01*
Y204355D01*
Y204363D01*
X35720Y204406D01*
X35713Y204479D01*
X35691Y204559D01*
X35662Y204662D01*
X35611Y204764D01*
X35545Y204866D01*
X35458Y204968D01*
X35443Y204982D01*
X35407Y205012D01*
X35355Y205048D01*
X35275Y205099D01*
X35173Y205143D01*
X35056Y205187D01*
X34918Y205216D01*
X34765Y205223D01*
X34721D01*
X34692Y205216D01*
X34605Y205208D01*
X34503Y205187D01*
X34393Y205157D01*
X34269Y205106D01*
X34153Y205041D01*
X34043Y204953D01*
X34029Y204939D01*
X33999Y204902D01*
X33956Y204844D01*
X33912Y204756D01*
X33861Y204654D01*
X33817Y204523D01*
X33788Y204377D01*
X33773Y204210D01*
X33139Y204275D01*
Y204282D01*
X33147Y204304D01*
Y204341D01*
X33154Y204392D01*
X33168Y204450D01*
X33183Y204516D01*
X33205Y204596D01*
X33227Y204676D01*
X33285Y204851D01*
X33373Y205026D01*
X33424Y205114D01*
X33489Y205201D01*
X33555Y205281D01*
X33628Y205354D01*
X33635Y205361D01*
X33650Y205369D01*
X33671Y205391D01*
X33708Y205412D01*
X33752Y205442D01*
X33803Y205471D01*
X33861Y205507D01*
X33934Y205544D01*
X34014Y205580D01*
X34102Y205617D01*
X34196Y205646D01*
X34298Y205675D01*
X34408Y205697D01*
X34524Y205719D01*
X34648Y205726D01*
X34780Y205733D01*
X34852D01*
X34903Y205726D01*
D02*
G37*
G36*
X29830Y202445D02*
X30515D01*
Y201877D01*
X29830D01*
Y200667D01*
X29210D01*
Y201877D01*
X27016D01*
Y202445D01*
X29327Y205711D01*
X29830D01*
Y202445D01*
D02*
G37*
G36*
X38826Y205726D02*
X38920Y205711D01*
X39030Y205690D01*
X39146Y205660D01*
X39270Y205624D01*
X39387Y205566D01*
X39394D01*
X39401Y205558D01*
X39438Y205536D01*
X39496Y205500D01*
X39569Y205449D01*
X39649Y205376D01*
X39737Y205296D01*
X39817Y205201D01*
X39897Y205092D01*
X39904Y205077D01*
X39933Y205041D01*
X39963Y204975D01*
X40014Y204880D01*
X40058Y204771D01*
X40116Y204647D01*
X40167Y204501D01*
X40211Y204341D01*
Y204333D01*
X40218Y204319D01*
X40225Y204297D01*
X40232Y204261D01*
X40240Y204217D01*
X40247Y204166D01*
X40262Y204100D01*
X40269Y204027D01*
X40284Y203947D01*
X40291Y203860D01*
X40298Y203758D01*
X40313Y203656D01*
X40320Y203539D01*
Y203422D01*
X40327Y203291D01*
Y203152D01*
Y203145D01*
Y203116D01*
Y203065D01*
Y203007D01*
X40320Y202927D01*
Y202839D01*
X40313Y202744D01*
X40305Y202642D01*
X40284Y202409D01*
X40247Y202168D01*
X40203Y201935D01*
X40174Y201826D01*
X40138Y201716D01*
Y201709D01*
X40130Y201695D01*
X40116Y201665D01*
X40101Y201629D01*
X40087Y201578D01*
X40058Y201527D01*
X39999Y201403D01*
X39926Y201272D01*
X39832Y201126D01*
X39722Y200995D01*
X39591Y200871D01*
X39584D01*
X39576Y200856D01*
X39555Y200842D01*
X39525Y200827D01*
X39489Y200805D01*
X39452Y200776D01*
X39343Y200725D01*
X39212Y200674D01*
X39059Y200623D01*
X38877Y200594D01*
X38680Y200579D01*
X38607D01*
X38556Y200587D01*
X38497Y200594D01*
X38425Y200608D01*
X38344Y200623D01*
X38257Y200645D01*
X38169Y200674D01*
X38075Y200703D01*
X37980Y200747D01*
X37885Y200798D01*
X37790Y200856D01*
X37696Y200929D01*
X37608Y201009D01*
X37528Y201097D01*
X37521Y201104D01*
X37506Y201126D01*
X37484Y201162D01*
X37448Y201221D01*
X37411Y201286D01*
X37375Y201374D01*
X37324Y201476D01*
X37280Y201592D01*
X37236Y201724D01*
X37192Y201877D01*
X37149Y202045D01*
X37112Y202234D01*
X37076Y202438D01*
X37054Y202657D01*
X37039Y202897D01*
X37032Y203152D01*
Y203160D01*
Y203189D01*
Y203240D01*
Y203298D01*
X37039Y203379D01*
Y203466D01*
X37047Y203561D01*
X37054Y203670D01*
X37076Y203896D01*
X37112Y204137D01*
X37156Y204377D01*
X37185Y204487D01*
X37214Y204596D01*
Y204603D01*
X37222Y204618D01*
X37236Y204647D01*
X37251Y204683D01*
X37265Y204734D01*
X37295Y204785D01*
X37353Y204909D01*
X37426Y205041D01*
X37521Y205179D01*
X37630Y205318D01*
X37761Y205434D01*
X37768D01*
X37776Y205449D01*
X37798Y205464D01*
X37827Y205478D01*
X37863Y205507D01*
X37907Y205529D01*
X38016Y205587D01*
X38148Y205638D01*
X38301Y205690D01*
X38483Y205719D01*
X38680Y205733D01*
X38745D01*
X38826Y205726D01*
D02*
G37*
G36*
X31353Y200579D02*
X30858D01*
X32323Y205799D01*
X32818D01*
X31353Y200579D01*
D02*
G37*
G36*
X25098Y205726D02*
X25193Y205711D01*
X25302Y205690D01*
X25419Y205660D01*
X25543Y205624D01*
X25660Y205566D01*
X25667D01*
X25674Y205558D01*
X25711Y205536D01*
X25769Y205500D01*
X25842Y205449D01*
X25922Y205376D01*
X26010Y205296D01*
X26090Y205201D01*
X26170Y205092D01*
X26177Y205077D01*
X26206Y205041D01*
X26236Y204975D01*
X26287Y204880D01*
X26330Y204771D01*
X26389Y204647D01*
X26440Y204501D01*
X26484Y204341D01*
Y204333D01*
X26491Y204319D01*
X26498Y204297D01*
X26505Y204261D01*
X26513Y204217D01*
X26520Y204166D01*
X26535Y204100D01*
X26542Y204027D01*
X26556Y203947D01*
X26564Y203860D01*
X26571Y203758D01*
X26586Y203656D01*
X26593Y203539D01*
Y203422D01*
X26600Y203291D01*
Y203152D01*
Y203145D01*
Y203116D01*
Y203065D01*
Y203007D01*
X26593Y202927D01*
Y202839D01*
X26586Y202744D01*
X26578Y202642D01*
X26556Y202409D01*
X26520Y202168D01*
X26476Y201935D01*
X26447Y201826D01*
X26411Y201716D01*
Y201709D01*
X26403Y201695D01*
X26389Y201665D01*
X26374Y201629D01*
X26360Y201578D01*
X26330Y201527D01*
X26272Y201403D01*
X26199Y201272D01*
X26104Y201126D01*
X25995Y200995D01*
X25864Y200871D01*
X25857D01*
X25849Y200856D01*
X25827Y200842D01*
X25798Y200827D01*
X25762Y200805D01*
X25725Y200776D01*
X25616Y200725D01*
X25485Y200674D01*
X25332Y200623D01*
X25149Y200594D01*
X24953Y200579D01*
X24880D01*
X24829Y200587D01*
X24770Y200594D01*
X24697Y200608D01*
X24617Y200623D01*
X24530Y200645D01*
X24442Y200674D01*
X24348Y200703D01*
X24253Y200747D01*
X24158Y200798D01*
X24063Y200856D01*
X23968Y200929D01*
X23881Y201009D01*
X23801Y201097D01*
X23794Y201104D01*
X23779Y201126D01*
X23757Y201162D01*
X23721Y201221D01*
X23684Y201286D01*
X23648Y201374D01*
X23597Y201476D01*
X23553Y201592D01*
X23509Y201724D01*
X23465Y201877D01*
X23422Y202045D01*
X23385Y202234D01*
X23349Y202438D01*
X23327Y202657D01*
X23312Y202897D01*
X23305Y203152D01*
Y203160D01*
Y203189D01*
Y203240D01*
Y203298D01*
X23312Y203379D01*
Y203466D01*
X23320Y203561D01*
X23327Y203670D01*
X23349Y203896D01*
X23385Y204137D01*
X23429Y204377D01*
X23458Y204487D01*
X23487Y204596D01*
Y204603D01*
X23495Y204618D01*
X23509Y204647D01*
X23524Y204683D01*
X23538Y204734D01*
X23568Y204785D01*
X23626Y204909D01*
X23699Y205041D01*
X23794Y205179D01*
X23903Y205318D01*
X24034Y205434D01*
X24041D01*
X24049Y205449D01*
X24070Y205464D01*
X24100Y205478D01*
X24136Y205507D01*
X24180Y205529D01*
X24289Y205587D01*
X24420Y205638D01*
X24574Y205690D01*
X24756Y205719D01*
X24953Y205733D01*
X25018D01*
X25098Y205726D01*
D02*
G37*
G36*
X21548Y200579D02*
X21052D01*
X22518Y205799D01*
X23013D01*
X21548Y200579D01*
D02*
G37*
G36*
X15293Y205726D02*
X15388Y205711D01*
X15497Y205690D01*
X15614Y205660D01*
X15738Y205624D01*
X15855Y205566D01*
X15862D01*
X15869Y205558D01*
X15906Y205536D01*
X15964Y205500D01*
X16037Y205449D01*
X16117Y205376D01*
X16205Y205296D01*
X16285Y205201D01*
X16365Y205092D01*
X16372Y205077D01*
X16401Y205041D01*
X16431Y204975D01*
X16482Y204880D01*
X16525Y204771D01*
X16584Y204647D01*
X16635Y204501D01*
X16678Y204341D01*
Y204333D01*
X16686Y204319D01*
X16693Y204297D01*
X16700Y204261D01*
X16708Y204217D01*
X16715Y204166D01*
X16729Y204100D01*
X16737Y204027D01*
X16751Y203947D01*
X16759Y203860D01*
X16766Y203758D01*
X16781Y203656D01*
X16788Y203539D01*
Y203422D01*
X16795Y203291D01*
Y203152D01*
Y203145D01*
Y203116D01*
Y203065D01*
Y203007D01*
X16788Y202927D01*
Y202839D01*
X16781Y202744D01*
X16773Y202642D01*
X16751Y202409D01*
X16715Y202168D01*
X16671Y201935D01*
X16642Y201826D01*
X16605Y201716D01*
Y201709D01*
X16598Y201695D01*
X16584Y201665D01*
X16569Y201629D01*
X16555Y201578D01*
X16525Y201527D01*
X16467Y201403D01*
X16394Y201272D01*
X16299Y201126D01*
X16190Y200995D01*
X16059Y200871D01*
X16051D01*
X16044Y200856D01*
X16022Y200842D01*
X15993Y200827D01*
X15957Y200805D01*
X15920Y200776D01*
X15811Y200725D01*
X15680Y200674D01*
X15527Y200623D01*
X15344Y200594D01*
X15147Y200579D01*
X15075D01*
X15024Y200587D01*
X14965Y200594D01*
X14892Y200608D01*
X14812Y200623D01*
X14725Y200645D01*
X14637Y200674D01*
X14543Y200703D01*
X14448Y200747D01*
X14353Y200798D01*
X14258Y200856D01*
X14163Y200929D01*
X14076Y201009D01*
X13996Y201097D01*
X13988Y201104D01*
X13974Y201126D01*
X13952Y201162D01*
X13916Y201221D01*
X13879Y201286D01*
X13843Y201374D01*
X13792Y201476D01*
X13748Y201592D01*
X13704Y201724D01*
X13660Y201877D01*
X13617Y202045D01*
X13580Y202234D01*
X13544Y202438D01*
X13522Y202657D01*
X13507Y202897D01*
X13500Y203152D01*
Y203160D01*
Y203189D01*
Y203240D01*
Y203298D01*
X13507Y203379D01*
Y203466D01*
X13515Y203561D01*
X13522Y203670D01*
X13544Y203896D01*
X13580Y204137D01*
X13624Y204377D01*
X13653Y204487D01*
X13682Y204596D01*
Y204603D01*
X13690Y204618D01*
X13704Y204647D01*
X13719Y204683D01*
X13733Y204734D01*
X13762Y204785D01*
X13821Y204909D01*
X13894Y205041D01*
X13988Y205179D01*
X14098Y205318D01*
X14229Y205434D01*
X14236D01*
X14244Y205449D01*
X14266Y205464D01*
X14295Y205478D01*
X14331Y205507D01*
X14375Y205529D01*
X14484Y205587D01*
X14615Y205638D01*
X14769Y205690D01*
X14951Y205719D01*
X15147Y205733D01*
X15213D01*
X15293Y205726D01*
D02*
G37*
G36*
X24770Y215212D02*
X24821D01*
X24960Y215198D01*
X25113Y215176D01*
X25273Y215139D01*
X25448Y215096D01*
X25609Y215037D01*
X25616D01*
X25631Y215030D01*
X25652Y215016D01*
X25682Y215001D01*
X25754Y214965D01*
X25849Y214899D01*
X25959Y214826D01*
X26068Y214731D01*
X26170Y214622D01*
X26265Y214498D01*
Y214491D01*
X26272Y214483D01*
X26287Y214461D01*
X26301Y214440D01*
X26338Y214367D01*
X26381Y214272D01*
X26432Y214155D01*
X26469Y214017D01*
X26505Y213871D01*
X26520Y213711D01*
X25878Y213660D01*
Y213667D01*
Y213681D01*
X25871Y213703D01*
X25864Y213740D01*
X25842Y213820D01*
X25813Y213929D01*
X25769Y214046D01*
X25703Y214163D01*
X25623Y214272D01*
X25521Y214374D01*
X25507Y214381D01*
X25470Y214410D01*
X25397Y214454D01*
X25302Y214498D01*
X25179Y214542D01*
X25033Y214585D01*
X24850Y214615D01*
X24646Y214622D01*
X24544D01*
X24501Y214615D01*
X24442Y214607D01*
X24311Y214593D01*
X24165Y214563D01*
X24020Y214527D01*
X23881Y214469D01*
X23823Y214432D01*
X23764Y214396D01*
X23750Y214389D01*
X23721Y214359D01*
X23677Y214308D01*
X23633Y214250D01*
X23582Y214170D01*
X23538Y214082D01*
X23509Y213980D01*
X23495Y213864D01*
Y213849D01*
Y213820D01*
X23502Y213769D01*
X23516Y213711D01*
X23538Y213638D01*
X23575Y213565D01*
X23618Y213492D01*
X23684Y213419D01*
X23691Y213412D01*
X23728Y213390D01*
X23757Y213368D01*
X23786Y213353D01*
X23830Y213332D01*
X23881Y213302D01*
X23947Y213281D01*
X24020Y213251D01*
X24100Y213222D01*
X24194Y213186D01*
X24296Y213157D01*
X24413Y213120D01*
X24544Y213091D01*
X24690Y213054D01*
X24697D01*
X24727Y213047D01*
X24770Y213040D01*
X24821Y213025D01*
X24887Y213011D01*
X24967Y212989D01*
X25047Y212967D01*
X25135Y212945D01*
X25324Y212894D01*
X25507Y212843D01*
X25594Y212814D01*
X25674Y212785D01*
X25747Y212763D01*
X25806Y212734D01*
X25813D01*
X25827Y212726D01*
X25849Y212712D01*
X25878Y212697D01*
X25959Y212653D01*
X26053Y212595D01*
X26163Y212515D01*
X26272Y212428D01*
X26374Y212326D01*
X26462Y212216D01*
X26469Y212202D01*
X26498Y212165D01*
X26527Y212100D01*
X26571Y212012D01*
X26607Y211910D01*
X26644Y211786D01*
X26666Y211648D01*
X26673Y211502D01*
Y211494D01*
Y211487D01*
Y211465D01*
Y211436D01*
X26658Y211356D01*
X26644Y211254D01*
X26615Y211137D01*
X26578Y211013D01*
X26520Y210882D01*
X26440Y210744D01*
Y210736D01*
X26432Y210729D01*
X26396Y210685D01*
X26345Y210620D01*
X26272Y210547D01*
X26177Y210459D01*
X26061Y210365D01*
X25929Y210277D01*
X25776Y210197D01*
X25769D01*
X25754Y210190D01*
X25733Y210182D01*
X25703Y210168D01*
X25660Y210153D01*
X25609Y210131D01*
X25492Y210102D01*
X25354Y210066D01*
X25186Y210029D01*
X25004Y210007D01*
X24807Y210000D01*
X24690D01*
X24632Y210007D01*
X24566D01*
X24493Y210015D01*
X24406Y210022D01*
X24224Y210051D01*
X24034Y210080D01*
X23844Y210131D01*
X23662Y210197D01*
X23655D01*
X23640Y210204D01*
X23618Y210219D01*
X23589Y210233D01*
X23502Y210277D01*
X23400Y210343D01*
X23283Y210430D01*
X23159Y210532D01*
X23043Y210656D01*
X22933Y210795D01*
Y210802D01*
X22919Y210817D01*
X22911Y210838D01*
X22889Y210868D01*
X22875Y210904D01*
X22853Y210948D01*
X22802Y211057D01*
X22751Y211196D01*
X22707Y211349D01*
X22678Y211524D01*
X22663Y211706D01*
X23291Y211764D01*
Y211757D01*
Y211750D01*
X23298Y211728D01*
Y211699D01*
X23312Y211633D01*
X23334Y211538D01*
X23363Y211443D01*
X23392Y211334D01*
X23444Y211232D01*
X23495Y211137D01*
X23502Y211130D01*
X23524Y211101D01*
X23560Y211050D01*
X23618Y210999D01*
X23691Y210933D01*
X23772Y210868D01*
X23881Y210802D01*
X23998Y210744D01*
X24005D01*
X24012Y210736D01*
X24034Y210729D01*
X24056Y210722D01*
X24129Y210700D01*
X24224Y210671D01*
X24340Y210642D01*
X24471Y210620D01*
X24617Y210605D01*
X24778Y210598D01*
X24843D01*
X24916Y210605D01*
X25004Y210612D01*
X25106Y210627D01*
X25222Y210642D01*
X25339Y210671D01*
X25448Y210707D01*
X25463Y210714D01*
X25499Y210729D01*
X25550Y210758D01*
X25616Y210787D01*
X25682Y210838D01*
X25754Y210889D01*
X25827Y210948D01*
X25886Y211021D01*
X25893Y211028D01*
X25908Y211057D01*
X25929Y211093D01*
X25959Y211152D01*
X25988Y211210D01*
X26010Y211283D01*
X26024Y211363D01*
X26032Y211451D01*
Y211458D01*
Y211494D01*
X26024Y211538D01*
X26017Y211596D01*
X25995Y211655D01*
X25973Y211728D01*
X25937Y211801D01*
X25886Y211866D01*
X25878Y211874D01*
X25857Y211895D01*
X25827Y211925D01*
X25776Y211968D01*
X25718Y212012D01*
X25638Y212063D01*
X25543Y212114D01*
X25434Y212158D01*
X25426Y212165D01*
X25390Y212172D01*
X25332Y212194D01*
X25295Y212202D01*
X25244Y212216D01*
X25193Y212238D01*
X25128Y212253D01*
X25055Y212275D01*
X24967Y212296D01*
X24880Y212318D01*
X24778Y212347D01*
X24661Y212376D01*
X24537Y212406D01*
X24530D01*
X24508Y212413D01*
X24471Y212420D01*
X24428Y212435D01*
X24369Y212449D01*
X24304Y212464D01*
X24158Y212508D01*
X23998Y212559D01*
X23830Y212610D01*
X23684Y212661D01*
X23618Y212690D01*
X23560Y212719D01*
X23553D01*
X23546Y212726D01*
X23502Y212756D01*
X23436Y212792D01*
X23363Y212850D01*
X23276Y212916D01*
X23188Y212996D01*
X23101Y213091D01*
X23028Y213193D01*
X23021Y213208D01*
X22999Y213244D01*
X22970Y213302D01*
X22941Y213375D01*
X22911Y213470D01*
X22882Y213579D01*
X22860Y213696D01*
X22853Y213820D01*
Y213827D01*
Y213835D01*
Y213856D01*
Y213886D01*
X22868Y213959D01*
X22882Y214053D01*
X22904Y214163D01*
X22941Y214286D01*
X22992Y214410D01*
X23065Y214534D01*
Y214542D01*
X23072Y214549D01*
X23108Y214593D01*
X23159Y214651D01*
X23225Y214724D01*
X23312Y214804D01*
X23422Y214892D01*
X23553Y214972D01*
X23699Y215045D01*
X23706D01*
X23721Y215052D01*
X23742Y215059D01*
X23772Y215074D01*
X23808Y215088D01*
X23859Y215103D01*
X23968Y215132D01*
X24107Y215161D01*
X24267Y215191D01*
X24435Y215212D01*
X24624Y215220D01*
X24719D01*
X24770Y215212D01*
D02*
G37*
G36*
X38651Y210087D02*
X38009D01*
Y214308D01*
X36536Y210087D01*
X35939D01*
X34481Y214381D01*
Y210087D01*
X33839D01*
Y215132D01*
X34838D01*
X36033Y211553D01*
Y211545D01*
X36041Y211531D01*
X36048Y211509D01*
X36062Y211473D01*
X36092Y211385D01*
X36128Y211276D01*
X36165Y211152D01*
X36208Y211028D01*
X36245Y210911D01*
X36274Y210809D01*
X36281Y210824D01*
X36288Y210860D01*
X36310Y210926D01*
X36340Y211013D01*
X36376Y211130D01*
X36427Y211268D01*
X36478Y211429D01*
X36544Y211618D01*
X37754Y215132D01*
X38651D01*
Y210087D01*
D02*
G37*
G36*
X52757Y214534D02*
X51095D01*
Y210087D01*
X50424D01*
Y214534D01*
X48762D01*
Y215132D01*
X52757D01*
Y214534D01*
D02*
G37*
G36*
X46619Y215125D02*
X46742Y215118D01*
X46874Y215110D01*
X46998Y215096D01*
X47107Y215081D01*
X47122D01*
X47172Y215067D01*
X47238Y215052D01*
X47326Y215030D01*
X47420Y214994D01*
X47522Y214950D01*
X47632Y214899D01*
X47727Y214841D01*
X47741Y214833D01*
X47770Y214811D01*
X47814Y214768D01*
X47872Y214717D01*
X47938Y214651D01*
X48004Y214563D01*
X48077Y214469D01*
X48135Y214359D01*
X48142Y214345D01*
X48157Y214308D01*
X48186Y214243D01*
X48215Y214155D01*
X48237Y214053D01*
X48266Y213937D01*
X48281Y213805D01*
X48288Y213667D01*
Y213660D01*
Y213638D01*
Y213609D01*
X48281Y213558D01*
X48273Y213507D01*
X48266Y213441D01*
X48251Y213368D01*
X48237Y213288D01*
X48186Y213120D01*
X48157Y213033D01*
X48113Y212938D01*
X48062Y212843D01*
X48011Y212756D01*
X47945Y212668D01*
X47872Y212581D01*
X47865Y212573D01*
X47850Y212559D01*
X47829Y212537D01*
X47792Y212515D01*
X47748Y212479D01*
X47690Y212442D01*
X47617Y212398D01*
X47537Y212362D01*
X47442Y212318D01*
X47333Y212275D01*
X47216Y212238D01*
X47078Y212209D01*
X46932Y212180D01*
X46772Y212158D01*
X46589Y212143D01*
X46400Y212136D01*
X45109D01*
Y210087D01*
X44439D01*
Y215132D01*
X46509D01*
X46619Y215125D01*
D02*
G37*
G36*
X41916D02*
X42040Y215118D01*
X42172Y215110D01*
X42296Y215096D01*
X42405Y215081D01*
X42419D01*
X42470Y215067D01*
X42536Y215052D01*
X42624Y215030D01*
X42718Y214994D01*
X42820Y214950D01*
X42930Y214899D01*
X43025Y214841D01*
X43039Y214833D01*
X43068Y214811D01*
X43112Y214768D01*
X43170Y214717D01*
X43236Y214651D01*
X43301Y214563D01*
X43374Y214469D01*
X43433Y214359D01*
X43440Y214345D01*
X43455Y214308D01*
X43484Y214243D01*
X43513Y214155D01*
X43535Y214053D01*
X43564Y213937D01*
X43578Y213805D01*
X43586Y213667D01*
Y213660D01*
Y213638D01*
Y213609D01*
X43578Y213558D01*
X43571Y213507D01*
X43564Y213441D01*
X43549Y213368D01*
X43535Y213288D01*
X43484Y213120D01*
X43455Y213033D01*
X43411Y212938D01*
X43360Y212843D01*
X43309Y212756D01*
X43243Y212668D01*
X43170Y212581D01*
X43163Y212573D01*
X43148Y212559D01*
X43127Y212537D01*
X43090Y212515D01*
X43046Y212479D01*
X42988Y212442D01*
X42915Y212398D01*
X42835Y212362D01*
X42740Y212318D01*
X42631Y212275D01*
X42514Y212238D01*
X42376Y212209D01*
X42230Y212180D01*
X42070Y212158D01*
X41887Y212143D01*
X41698Y212136D01*
X40407D01*
Y210087D01*
X39737D01*
Y215132D01*
X41807D01*
X41916Y215125D01*
D02*
G37*
G36*
X31207Y214534D02*
X29545D01*
Y210087D01*
X28875D01*
Y214534D01*
X27213D01*
Y215132D01*
X31207D01*
Y214534D01*
D02*
G37*
G36*
X21847D02*
X18865D01*
Y212996D01*
X21657D01*
Y212398D01*
X18865D01*
Y210685D01*
X21964D01*
Y210087D01*
X18195D01*
Y215132D01*
X21847D01*
Y214534D01*
D02*
G37*
G36*
X17495D02*
X15833D01*
Y210087D01*
X15162D01*
Y214534D01*
X13500D01*
Y215132D01*
X17495D01*
Y214534D01*
D02*
G37*
%LPC*%
G36*
X164000Y212654D02*
X162834D01*
Y191654D01*
X164000D01*
Y212654D01*
D02*
G37*
G36*
X161667D02*
X159334D01*
Y191654D01*
X161667D01*
Y212654D01*
D02*
G37*
G36*
X158167D02*
X155834D01*
Y191654D01*
X158167D01*
Y212654D01*
D02*
G37*
G36*
X154667D02*
X153500D01*
Y191654D01*
X154667D01*
Y212654D01*
D02*
G37*
G36*
X151167D02*
X150000D01*
Y191654D01*
X151167D01*
Y212654D01*
D02*
G37*
G36*
X148834D02*
X146500D01*
Y191654D01*
X148834D01*
Y212654D01*
D02*
G37*
G36*
X145334D02*
X144167D01*
Y191654D01*
X145334D01*
Y212654D01*
D02*
G37*
G36*
X143000D02*
X141834D01*
Y191654D01*
X143000D01*
Y212654D01*
D02*
G37*
G36*
X139500D02*
X138334D01*
Y191654D01*
X139500D01*
Y212654D01*
D02*
G37*
G36*
X137167D02*
X134834D01*
Y191654D01*
X137167D01*
Y212654D01*
D02*
G37*
G36*
X133667D02*
X132500D01*
Y191654D01*
X133667D01*
Y212654D01*
D02*
G37*
G36*
X131333D02*
X129000D01*
Y191654D01*
X131333D01*
Y212654D01*
D02*
G37*
G36*
X127833D02*
X125500D01*
Y191654D01*
X127833D01*
Y212654D01*
D02*
G37*
G36*
X123167D02*
X122000D01*
Y191654D01*
X123167D01*
Y212654D01*
D02*
G37*
G36*
X120834D02*
X119667D01*
Y191654D01*
X120834D01*
Y212654D01*
D02*
G37*
G36*
X118500D02*
X117333D01*
Y191654D01*
X118500D01*
Y212654D01*
D02*
G37*
G36*
X116167D02*
X113833D01*
Y191654D01*
X116167D01*
Y212654D01*
D02*
G37*
G36*
X112667D02*
X110334D01*
Y191654D01*
X112667D01*
Y212654D01*
D02*
G37*
G36*
X108000D02*
X106834D01*
Y191654D01*
X108000D01*
Y212654D01*
D02*
G37*
G36*
X105667D02*
X104500D01*
Y191654D01*
X105667D01*
Y212654D01*
D02*
G37*
G36*
X103333D02*
X102167D01*
Y191654D01*
X103333D01*
Y212654D01*
D02*
G37*
G36*
X101000D02*
X98667D01*
Y191654D01*
X101000D01*
Y212654D01*
D02*
G37*
G36*
X97500D02*
X95167D01*
Y191654D01*
X97500D01*
Y212654D01*
D02*
G37*
G36*
X92833D02*
X91667D01*
Y191654D01*
X92833D01*
Y212654D01*
D02*
G37*
G36*
X90500D02*
X89333D01*
Y191654D01*
X90500D01*
Y212654D01*
D02*
G37*
G36*
X88167D02*
X85833D01*
Y191654D01*
X88167D01*
Y212654D01*
D02*
G37*
G36*
X83500D02*
X82333D01*
Y191654D01*
X83500D01*
Y212654D01*
D02*
G37*
G36*
X81167D02*
X80000D01*
Y191654D01*
X81167D01*
Y212654D01*
D02*
G37*
G36*
X78833D02*
X76500D01*
Y191654D01*
X78833D01*
Y212654D01*
D02*
G37*
G36*
X75333D02*
X74167D01*
Y191654D01*
X75333D01*
Y212654D01*
D02*
G37*
G36*
X73000D02*
X71833D01*
Y191654D01*
X73000D01*
Y212654D01*
D02*
G37*
G36*
X70667D02*
X68333D01*
Y191654D01*
X70667D01*
Y212654D01*
D02*
G37*
G36*
X67167D02*
X64833D01*
Y191654D01*
X67167D01*
Y212654D01*
D02*
G37*
G36*
X63667D02*
X62500D01*
Y191654D01*
X63667D01*
Y212654D01*
D02*
G37*
G36*
X60167D02*
X59000D01*
Y191654D01*
X60167D01*
Y212654D01*
D02*
G37*
G36*
X153580Y191567D02*
X153179D01*
X153106Y191443D01*
X153026Y191326D01*
X152931Y191209D01*
X152844Y191107D01*
X152756Y191020D01*
X152691Y190947D01*
X152662Y190925D01*
X152640Y190903D01*
X152632Y190896D01*
X152625Y190889D01*
X152472Y190765D01*
X152319Y190648D01*
X152173Y190546D01*
X152027Y190466D01*
X151903Y190393D01*
X151852Y190364D01*
X151809Y190342D01*
X151772Y190320D01*
X151743Y190313D01*
X151728Y190298D01*
X151721D01*
Y189700D01*
X151830Y189744D01*
X151940Y189795D01*
X152049Y189846D01*
X152151Y189897D01*
X152239Y189941D01*
X152312Y189977D01*
X152355Y190006D01*
X152363Y190014D01*
X152370D01*
X152501Y190094D01*
X152618Y190174D01*
X152720Y190247D01*
X152800Y190313D01*
X152873Y190364D01*
X152917Y190407D01*
X152953Y190437D01*
X152960Y190444D01*
Y186500D01*
X153580D01*
Y191567D01*
D02*
G37*
G36*
X68144Y191545D02*
X67473D01*
Y186500D01*
X70630D01*
Y187098D01*
X68144D01*
Y191545D01*
D02*
G37*
G36*
X131960Y191567D02*
X131895D01*
X131698Y191552D01*
X131516Y191523D01*
X131363Y191472D01*
X131231Y191421D01*
X131122Y191362D01*
X131078Y191341D01*
X131042Y191311D01*
X131013Y191297D01*
X130991Y191282D01*
X130983Y191268D01*
X130976D01*
X130845Y191151D01*
X130736Y191013D01*
X130641Y190874D01*
X130568Y190743D01*
X130510Y190619D01*
X130481Y190568D01*
X130466Y190517D01*
X130451Y190480D01*
X130437Y190451D01*
X130429Y190437D01*
Y190429D01*
X130400Y190320D01*
X130371Y190211D01*
X130327Y189970D01*
X130291Y189729D01*
X130269Y189504D01*
X130262Y189394D01*
X130254Y189299D01*
Y189212D01*
X130247Y189132D01*
Y189073D01*
Y189022D01*
Y188993D01*
Y188986D01*
X130254Y188731D01*
X130269Y188490D01*
X130291Y188271D01*
X130327Y188067D01*
X130364Y187878D01*
X130408Y187710D01*
X130451Y187557D01*
X130495Y187426D01*
X130539Y187309D01*
X130590Y187207D01*
X130626Y187120D01*
X130663Y187054D01*
X130699Y186996D01*
X130721Y186959D01*
X130736Y186937D01*
X130743Y186930D01*
X130823Y186843D01*
X130911Y186762D01*
X131005Y186689D01*
X131100Y186631D01*
X131195Y186580D01*
X131290Y186536D01*
X131385Y186507D01*
X131472Y186478D01*
X131559Y186456D01*
X131640Y186442D01*
X131712Y186427D01*
X131771Y186420D01*
X131822Y186413D01*
X131895D01*
X132092Y186427D01*
X132274Y186456D01*
X132427Y186507D01*
X132558Y186558D01*
X132668Y186609D01*
X132704Y186638D01*
X132740Y186660D01*
X132770Y186675D01*
X132791Y186689D01*
X132799Y186704D01*
X132806D01*
X132937Y186828D01*
X133047Y186959D01*
X133141Y187105D01*
X133214Y187236D01*
X133273Y187360D01*
X133302Y187411D01*
X133316Y187462D01*
X133331Y187499D01*
X133345Y187528D01*
X133353Y187542D01*
Y187550D01*
X133389Y187659D01*
X133418Y187768D01*
X133462Y188002D01*
X133499Y188242D01*
X133520Y188476D01*
X133528Y188578D01*
X133535Y188672D01*
Y188760D01*
X133542Y188840D01*
Y188898D01*
Y188949D01*
Y188979D01*
Y188986D01*
Y189124D01*
X133535Y189256D01*
Y189372D01*
X133528Y189489D01*
X133513Y189591D01*
X133506Y189693D01*
X133499Y189780D01*
X133484Y189861D01*
X133477Y189934D01*
X133462Y189999D01*
X133455Y190050D01*
X133448Y190094D01*
X133440Y190130D01*
X133433Y190152D01*
X133426Y190167D01*
Y190174D01*
X133382Y190334D01*
X133331Y190480D01*
X133273Y190604D01*
X133229Y190714D01*
X133178Y190808D01*
X133149Y190874D01*
X133119Y190910D01*
X133112Y190925D01*
X133032Y191034D01*
X132952Y191129D01*
X132864Y191209D01*
X132784Y191282D01*
X132711Y191333D01*
X132653Y191370D01*
X132616Y191392D01*
X132609Y191399D01*
X132602D01*
X132485Y191457D01*
X132361Y191494D01*
X132245Y191523D01*
X132135Y191545D01*
X132041Y191559D01*
X131960Y191567D01*
D02*
G37*
G36*
X110960D02*
X110895D01*
X110698Y191552D01*
X110516Y191523D01*
X110363Y191472D01*
X110231Y191421D01*
X110122Y191362D01*
X110078Y191341D01*
X110042Y191311D01*
X110013Y191297D01*
X109991Y191282D01*
X109984Y191268D01*
X109976D01*
X109845Y191151D01*
X109736Y191013D01*
X109641Y190874D01*
X109568Y190743D01*
X109510Y190619D01*
X109481Y190568D01*
X109466Y190517D01*
X109451Y190480D01*
X109437Y190451D01*
X109430Y190437D01*
Y190429D01*
X109400Y190320D01*
X109371Y190211D01*
X109327Y189970D01*
X109291Y189729D01*
X109269Y189504D01*
X109262Y189394D01*
X109255Y189299D01*
Y189212D01*
X109247Y189132D01*
Y189073D01*
Y189022D01*
Y188993D01*
Y188986D01*
X109255Y188731D01*
X109269Y188490D01*
X109291Y188271D01*
X109327Y188067D01*
X109364Y187878D01*
X109408Y187710D01*
X109451Y187557D01*
X109495Y187426D01*
X109539Y187309D01*
X109590Y187207D01*
X109626Y187120D01*
X109663Y187054D01*
X109699Y186996D01*
X109721Y186959D01*
X109736Y186937D01*
X109743Y186930D01*
X109823Y186843D01*
X109911Y186762D01*
X110005Y186689D01*
X110100Y186631D01*
X110195Y186580D01*
X110290Y186536D01*
X110385Y186507D01*
X110472Y186478D01*
X110559Y186456D01*
X110640Y186442D01*
X110713Y186427D01*
X110771Y186420D01*
X110822Y186413D01*
X110895D01*
X111092Y186427D01*
X111274Y186456D01*
X111427Y186507D01*
X111558Y186558D01*
X111668Y186609D01*
X111704Y186638D01*
X111740Y186660D01*
X111770Y186675D01*
X111792Y186689D01*
X111799Y186704D01*
X111806D01*
X111937Y186828D01*
X112047Y186959D01*
X112141Y187105D01*
X112214Y187236D01*
X112273Y187360D01*
X112302Y187411D01*
X112316Y187462D01*
X112331Y187499D01*
X112346Y187528D01*
X112353Y187542D01*
Y187550D01*
X112389Y187659D01*
X112418Y187768D01*
X112462Y188002D01*
X112499Y188242D01*
X112521Y188476D01*
X112528Y188578D01*
X112535Y188672D01*
Y188760D01*
X112542Y188840D01*
Y188898D01*
Y188949D01*
Y188979D01*
Y188986D01*
Y189124D01*
X112535Y189256D01*
Y189372D01*
X112528Y189489D01*
X112513Y189591D01*
X112506Y189693D01*
X112499Y189780D01*
X112484Y189861D01*
X112477Y189934D01*
X112462Y189999D01*
X112455Y190050D01*
X112448Y190094D01*
X112440Y190130D01*
X112433Y190152D01*
X112426Y190167D01*
Y190174D01*
X112382Y190334D01*
X112331Y190480D01*
X112273Y190604D01*
X112229Y190714D01*
X112178Y190808D01*
X112149Y190874D01*
X112119Y190910D01*
X112112Y190925D01*
X112032Y191034D01*
X111952Y191129D01*
X111864Y191209D01*
X111784Y191282D01*
X111711Y191333D01*
X111653Y191370D01*
X111617Y191392D01*
X111609Y191399D01*
X111602D01*
X111485Y191457D01*
X111361Y191494D01*
X111245Y191523D01*
X111135Y191545D01*
X111041Y191559D01*
X110960Y191567D01*
D02*
G37*
G36*
X89960D02*
X89895D01*
X89698Y191552D01*
X89516Y191523D01*
X89363Y191472D01*
X89231Y191421D01*
X89122Y191362D01*
X89078Y191341D01*
X89042Y191311D01*
X89013Y191297D01*
X88991Y191282D01*
X88984Y191268D01*
X88976D01*
X88845Y191151D01*
X88736Y191013D01*
X88641Y190874D01*
X88568Y190743D01*
X88510Y190619D01*
X88481Y190568D01*
X88466Y190517D01*
X88451Y190480D01*
X88437Y190451D01*
X88429Y190437D01*
Y190429D01*
X88400Y190320D01*
X88371Y190211D01*
X88327Y189970D01*
X88291Y189729D01*
X88269Y189504D01*
X88262Y189394D01*
X88254Y189299D01*
Y189212D01*
X88247Y189132D01*
Y189073D01*
Y189022D01*
Y188993D01*
Y188986D01*
X88254Y188731D01*
X88269Y188490D01*
X88291Y188271D01*
X88327Y188067D01*
X88364Y187878D01*
X88408Y187710D01*
X88451Y187557D01*
X88495Y187426D01*
X88539Y187309D01*
X88590Y187207D01*
X88626Y187120D01*
X88663Y187054D01*
X88699Y186996D01*
X88721Y186959D01*
X88736Y186937D01*
X88743Y186930D01*
X88823Y186843D01*
X88911Y186762D01*
X89005Y186689D01*
X89100Y186631D01*
X89195Y186580D01*
X89290Y186536D01*
X89385Y186507D01*
X89472Y186478D01*
X89560Y186456D01*
X89640Y186442D01*
X89713Y186427D01*
X89771Y186420D01*
X89822Y186413D01*
X89895D01*
X90092Y186427D01*
X90274Y186456D01*
X90427Y186507D01*
X90558Y186558D01*
X90667Y186609D01*
X90704Y186638D01*
X90740Y186660D01*
X90770Y186675D01*
X90791Y186689D01*
X90799Y186704D01*
X90806D01*
X90937Y186828D01*
X91047Y186959D01*
X91141Y187105D01*
X91214Y187236D01*
X91273Y187360D01*
X91302Y187411D01*
X91316Y187462D01*
X91331Y187499D01*
X91346Y187528D01*
X91353Y187542D01*
Y187550D01*
X91389Y187659D01*
X91418Y187768D01*
X91462Y188002D01*
X91499Y188242D01*
X91521Y188476D01*
X91528Y188578D01*
X91535Y188672D01*
Y188760D01*
X91542Y188840D01*
Y188898D01*
Y188949D01*
Y188979D01*
Y188986D01*
Y189124D01*
X91535Y189256D01*
Y189372D01*
X91528Y189489D01*
X91513Y189591D01*
X91506Y189693D01*
X91499Y189780D01*
X91484Y189861D01*
X91477Y189934D01*
X91462Y189999D01*
X91455Y190050D01*
X91448Y190094D01*
X91440Y190130D01*
X91433Y190152D01*
X91426Y190167D01*
Y190174D01*
X91382Y190334D01*
X91331Y190480D01*
X91273Y190604D01*
X91229Y190714D01*
X91178Y190808D01*
X91149Y190874D01*
X91119Y190910D01*
X91112Y190925D01*
X91032Y191034D01*
X90952Y191129D01*
X90864Y191209D01*
X90784Y191282D01*
X90711Y191333D01*
X90653Y191370D01*
X90617Y191392D01*
X90609Y191399D01*
X90602D01*
X90485Y191457D01*
X90361Y191494D01*
X90245Y191523D01*
X90135Y191545D01*
X90041Y191559D01*
X89960Y191567D01*
D02*
G37*
%LPD*%
G36*
X131968Y191049D02*
X132048Y191042D01*
X132121Y191020D01*
X132186Y190991D01*
X132310Y190925D01*
X132420Y190852D01*
X132500Y190772D01*
X132565Y190706D01*
X132587Y190677D01*
X132602Y190655D01*
X132616Y190648D01*
Y190641D01*
X132668Y190553D01*
X132711Y190451D01*
X132755Y190334D01*
X132784Y190211D01*
X132813Y190079D01*
X132835Y189941D01*
X132872Y189664D01*
X132886Y189525D01*
X132894Y189401D01*
X132901Y189285D01*
Y189190D01*
X132908Y189102D01*
Y189037D01*
Y189000D01*
Y188993D01*
Y188986D01*
Y188760D01*
X132894Y188556D01*
X132879Y188373D01*
X132864Y188199D01*
X132843Y188053D01*
X132813Y187914D01*
X132784Y187798D01*
X132762Y187688D01*
X132733Y187601D01*
X132704Y187528D01*
X132682Y187462D01*
X132653Y187411D01*
X132638Y187375D01*
X132624Y187353D01*
X132609Y187338D01*
Y187331D01*
X132551Y187258D01*
X132493Y187200D01*
X132434Y187142D01*
X132376Y187098D01*
X132252Y187025D01*
X132143Y186974D01*
X132041Y186945D01*
X131968Y186930D01*
X131939Y186923D01*
X131895D01*
X131815Y186930D01*
X131742Y186937D01*
X131603Y186988D01*
X131479Y187054D01*
X131370Y187127D01*
X131290Y187200D01*
X131224Y187266D01*
X131188Y187317D01*
X131173Y187324D01*
Y187331D01*
X131122Y187418D01*
X131078Y187521D01*
X131035Y187637D01*
X131005Y187761D01*
X130976Y187892D01*
X130954Y188031D01*
X130918Y188315D01*
X130903Y188446D01*
X130896Y188570D01*
X130889Y188687D01*
Y188782D01*
X130882Y188869D01*
Y188935D01*
Y188971D01*
Y188986D01*
X130889Y189212D01*
X130896Y189416D01*
X130911Y189605D01*
X130932Y189780D01*
X130954Y189934D01*
X130983Y190072D01*
X131013Y190196D01*
X131042Y190305D01*
X131071Y190400D01*
X131093Y190480D01*
X131122Y190546D01*
X131144Y190604D01*
X131166Y190641D01*
X131180Y190670D01*
X131195Y190684D01*
Y190692D01*
X131246Y190757D01*
X131297Y190816D01*
X131355Y190859D01*
X131414Y190903D01*
X131530Y190969D01*
X131640Y191013D01*
X131734Y191034D01*
X131815Y191049D01*
X131844Y191056D01*
X131887D01*
X131968Y191049D01*
D02*
G37*
G36*
X110968D02*
X111048Y191042D01*
X111121Y191020D01*
X111186Y190991D01*
X111310Y190925D01*
X111420Y190852D01*
X111500Y190772D01*
X111565Y190706D01*
X111587Y190677D01*
X111602Y190655D01*
X111617Y190648D01*
Y190641D01*
X111668Y190553D01*
X111711Y190451D01*
X111755Y190334D01*
X111784Y190211D01*
X111813Y190079D01*
X111835Y189941D01*
X111872Y189664D01*
X111886Y189525D01*
X111893Y189401D01*
X111901Y189285D01*
Y189190D01*
X111908Y189102D01*
Y189037D01*
Y189000D01*
Y188993D01*
Y188986D01*
Y188760D01*
X111893Y188556D01*
X111879Y188373D01*
X111864Y188199D01*
X111843Y188053D01*
X111813Y187914D01*
X111784Y187798D01*
X111762Y187688D01*
X111733Y187601D01*
X111704Y187528D01*
X111682Y187462D01*
X111653Y187411D01*
X111638Y187375D01*
X111624Y187353D01*
X111609Y187338D01*
Y187331D01*
X111551Y187258D01*
X111493Y187200D01*
X111434Y187142D01*
X111376Y187098D01*
X111252Y187025D01*
X111143Y186974D01*
X111041Y186945D01*
X110968Y186930D01*
X110939Y186923D01*
X110895D01*
X110815Y186930D01*
X110742Y186937D01*
X110603Y186988D01*
X110479Y187054D01*
X110370Y187127D01*
X110290Y187200D01*
X110224Y187266D01*
X110188Y187317D01*
X110173Y187324D01*
Y187331D01*
X110122Y187418D01*
X110078Y187521D01*
X110035Y187637D01*
X110005Y187761D01*
X109976Y187892D01*
X109954Y188031D01*
X109918Y188315D01*
X109903Y188446D01*
X109896Y188570D01*
X109889Y188687D01*
Y188782D01*
X109881Y188869D01*
Y188935D01*
Y188971D01*
Y188986D01*
X109889Y189212D01*
X109896Y189416D01*
X109911Y189605D01*
X109932Y189780D01*
X109954Y189934D01*
X109984Y190072D01*
X110013Y190196D01*
X110042Y190305D01*
X110071Y190400D01*
X110093Y190480D01*
X110122Y190546D01*
X110144Y190604D01*
X110166Y190641D01*
X110180Y190670D01*
X110195Y190684D01*
Y190692D01*
X110246Y190757D01*
X110297Y190816D01*
X110355Y190859D01*
X110414Y190903D01*
X110530Y190969D01*
X110640Y191013D01*
X110734Y191034D01*
X110815Y191049D01*
X110844Y191056D01*
X110888D01*
X110968Y191049D01*
D02*
G37*
G36*
X89968D02*
X90048Y191042D01*
X90121Y191020D01*
X90186Y190991D01*
X90310Y190925D01*
X90420Y190852D01*
X90500Y190772D01*
X90566Y190706D01*
X90587Y190677D01*
X90602Y190655D01*
X90617Y190648D01*
Y190641D01*
X90667Y190553D01*
X90711Y190451D01*
X90755Y190334D01*
X90784Y190211D01*
X90813Y190079D01*
X90835Y189941D01*
X90872Y189664D01*
X90886Y189525D01*
X90894Y189401D01*
X90901Y189285D01*
Y189190D01*
X90908Y189102D01*
Y189037D01*
Y189000D01*
Y188993D01*
Y188986D01*
Y188760D01*
X90894Y188556D01*
X90879Y188373D01*
X90864Y188199D01*
X90842Y188053D01*
X90813Y187914D01*
X90784Y187798D01*
X90762Y187688D01*
X90733Y187601D01*
X90704Y187528D01*
X90682Y187462D01*
X90653Y187411D01*
X90638Y187375D01*
X90624Y187353D01*
X90609Y187338D01*
Y187331D01*
X90551Y187258D01*
X90493Y187200D01*
X90434Y187142D01*
X90376Y187098D01*
X90252Y187025D01*
X90143Y186974D01*
X90041Y186945D01*
X89968Y186930D01*
X89938Y186923D01*
X89895D01*
X89815Y186930D01*
X89742Y186937D01*
X89603Y186988D01*
X89479Y187054D01*
X89370Y187127D01*
X89290Y187200D01*
X89224Y187266D01*
X89188Y187317D01*
X89173Y187324D01*
Y187331D01*
X89122Y187418D01*
X89078Y187521D01*
X89035Y187637D01*
X89005Y187761D01*
X88976Y187892D01*
X88954Y188031D01*
X88918Y188315D01*
X88903Y188446D01*
X88896Y188570D01*
X88889Y188687D01*
Y188782D01*
X88881Y188869D01*
Y188935D01*
Y188971D01*
Y188986D01*
X88889Y189212D01*
X88896Y189416D01*
X88911Y189605D01*
X88933Y189780D01*
X88954Y189934D01*
X88984Y190072D01*
X89013Y190196D01*
X89042Y190305D01*
X89071Y190400D01*
X89093Y190480D01*
X89122Y190546D01*
X89144Y190604D01*
X89166Y190641D01*
X89180Y190670D01*
X89195Y190684D01*
Y190692D01*
X89246Y190757D01*
X89297Y190816D01*
X89355Y190859D01*
X89414Y190903D01*
X89530Y190969D01*
X89640Y191013D01*
X89734Y191034D01*
X89815Y191049D01*
X89844Y191056D01*
X89887D01*
X89968Y191049D01*
D02*
G37*
%LPC*%
G36*
X45153Y186534D02*
X43710D01*
Y184734D01*
X45066D01*
X45117Y184741D01*
X45168D01*
X45226Y184748D01*
X45365Y184763D01*
X45518Y184792D01*
X45671Y184836D01*
X45809Y184894D01*
X45875Y184931D01*
X45926Y184974D01*
X45941Y184989D01*
X45970Y185018D01*
X46013Y185076D01*
X46064Y185149D01*
X46115Y185244D01*
X46159Y185361D01*
X46188Y185492D01*
X46203Y185645D01*
Y185652D01*
Y185660D01*
Y185696D01*
X46196Y185762D01*
X46181Y185835D01*
X46167Y185915D01*
X46137Y186010D01*
X46094Y186097D01*
X46043Y186185D01*
X46035Y186192D01*
X46013Y186221D01*
X45977Y186257D01*
X45933Y186308D01*
X45868Y186359D01*
X45795Y186403D01*
X45715Y186447D01*
X45620Y186483D01*
X45612D01*
X45583Y186491D01*
X45540Y186498D01*
X45481Y186512D01*
X45394Y186520D01*
X45284Y186527D01*
X45153Y186534D01*
D02*
G37*
G36*
X15775Y186607D02*
Y186600D01*
X15767Y186585D01*
Y186556D01*
X15753Y186527D01*
X15745Y186476D01*
X15731Y186425D01*
X15702Y186301D01*
X15665Y186155D01*
X15614Y185995D01*
X15563Y185820D01*
X15497Y185638D01*
X14951Y184165D01*
X16657D01*
X16132Y185550D01*
Y185557D01*
X16124Y185579D01*
X16110Y185616D01*
X16095Y185660D01*
X16073Y185711D01*
X16051Y185776D01*
X16030Y185849D01*
X16001Y185922D01*
X15942Y186090D01*
X15884Y186265D01*
X15825Y186440D01*
X15775Y186607D01*
D02*
G37*
G36*
X35589Y195941D02*
Y195933D01*
X35581Y195919D01*
Y195890D01*
X35567Y195860D01*
X35559Y195809D01*
X35545Y195758D01*
X35516Y195634D01*
X35479Y195489D01*
X35428Y195328D01*
X35377Y195153D01*
X35312Y194971D01*
X34765Y193499D01*
X36471D01*
X35946Y194884D01*
Y194891D01*
X35939Y194913D01*
X35924Y194949D01*
X35910Y194993D01*
X35888Y195044D01*
X35866Y195109D01*
X35844Y195182D01*
X35815Y195255D01*
X35756Y195423D01*
X35698Y195598D01*
X35640Y195773D01*
X35589Y195941D01*
D02*
G37*
G36*
X15760Y195904D02*
X14171D01*
Y194235D01*
X15672D01*
X15760Y194242D01*
X15862Y194249D01*
X15979Y194257D01*
X16095Y194271D01*
X16212Y194293D01*
X16314Y194322D01*
X16329Y194330D01*
X16358Y194344D01*
X16401Y194366D01*
X16460Y194395D01*
X16525Y194439D01*
X16591Y194490D01*
X16657Y194555D01*
X16708Y194628D01*
X16715Y194636D01*
X16729Y194665D01*
X16751Y194709D01*
X16781Y194767D01*
X16802Y194833D01*
X16824Y194905D01*
X16839Y194993D01*
X16846Y195080D01*
Y195088D01*
Y195095D01*
X16839Y195139D01*
X16831Y195204D01*
X16817Y195292D01*
X16781Y195379D01*
X16737Y195481D01*
X16671Y195576D01*
X16584Y195671D01*
X16569Y195678D01*
X16533Y195707D01*
X16474Y195744D01*
X16380Y195788D01*
X16270Y195831D01*
X16124Y195868D01*
X15957Y195897D01*
X15760Y195904D01*
D02*
G37*
G36*
X19157Y205223D02*
X19040D01*
X19011Y205216D01*
X18931Y205208D01*
X18836Y205179D01*
X18720Y205143D01*
X18596Y205077D01*
X18472Y204997D01*
X18414Y204939D01*
X18355Y204880D01*
Y204873D01*
X18341Y204866D01*
X18326Y204844D01*
X18311Y204822D01*
X18260Y204749D01*
X18209Y204647D01*
X18151Y204523D01*
X18100Y204370D01*
X18071Y204195D01*
X18056Y204006D01*
Y203998D01*
Y203984D01*
Y203962D01*
X18064Y203925D01*
Y203882D01*
X18071Y203838D01*
X18093Y203729D01*
X18129Y203605D01*
X18173Y203473D01*
X18246Y203342D01*
X18341Y203225D01*
X18355Y203211D01*
X18392Y203182D01*
X18457Y203131D01*
X18537Y203080D01*
X18647Y203021D01*
X18771Y202970D01*
X18909Y202941D01*
X19062Y202927D01*
X19106D01*
X19135Y202934D01*
X19215Y202941D01*
X19310Y202963D01*
X19427Y202999D01*
X19543Y203050D01*
X19660Y203123D01*
X19769Y203225D01*
X19784Y203240D01*
X19813Y203284D01*
X19857Y203349D01*
X19915Y203444D01*
X19966Y203561D01*
X20010Y203699D01*
X20039Y203867D01*
X20054Y204057D01*
Y204064D01*
Y204078D01*
Y204107D01*
X20046Y204144D01*
Y204195D01*
X20039Y204246D01*
X20017Y204363D01*
X19988Y204501D01*
X19937Y204647D01*
X19864Y204785D01*
X19769Y204909D01*
Y204917D01*
X19755Y204924D01*
X19718Y204960D01*
X19660Y205012D01*
X19580Y205070D01*
X19478Y205121D01*
X19361Y205172D01*
X19230Y205208D01*
X19157Y205223D01*
D02*
G37*
G36*
X29210Y204705D02*
X27621Y202445D01*
X29210D01*
Y204705D01*
D02*
G37*
G36*
X38672Y205223D02*
X38629D01*
X38600Y205216D01*
X38519Y205201D01*
X38425Y205179D01*
X38315Y205135D01*
X38199Y205070D01*
X38140Y205026D01*
X38082Y204982D01*
X38031Y204924D01*
X37980Y204858D01*
Y204851D01*
X37965Y204837D01*
X37951Y204807D01*
X37929Y204771D01*
X37907Y204713D01*
X37878Y204647D01*
X37856Y204567D01*
X37827Y204472D01*
X37798Y204363D01*
X37768Y204239D01*
X37739Y204100D01*
X37717Y203947D01*
X37696Y203772D01*
X37681Y203583D01*
X37674Y203379D01*
X37666Y203152D01*
Y203138D01*
Y203101D01*
Y203036D01*
X37674Y202948D01*
Y202854D01*
X37681Y202737D01*
X37688Y202613D01*
X37703Y202482D01*
X37739Y202198D01*
X37761Y202059D01*
X37790Y201928D01*
X37819Y201804D01*
X37863Y201687D01*
X37907Y201585D01*
X37958Y201498D01*
Y201490D01*
X37973Y201483D01*
X38009Y201432D01*
X38075Y201366D01*
X38155Y201294D01*
X38264Y201221D01*
X38388Y201155D01*
X38527Y201104D01*
X38600Y201097D01*
X38680Y201090D01*
X38723D01*
X38753Y201097D01*
X38826Y201111D01*
X38928Y201140D01*
X39037Y201191D01*
X39161Y201264D01*
X39219Y201308D01*
X39277Y201366D01*
X39336Y201425D01*
X39394Y201498D01*
Y201505D01*
X39409Y201520D01*
X39423Y201541D01*
X39438Y201578D01*
X39467Y201629D01*
X39489Y201695D01*
X39518Y201767D01*
X39547Y201855D01*
X39569Y201964D01*
X39598Y202081D01*
X39627Y202219D01*
X39649Y202365D01*
X39664Y202540D01*
X39678Y202722D01*
X39693Y202927D01*
Y203152D01*
Y203160D01*
Y203167D01*
Y203204D01*
Y203269D01*
X39686Y203357D01*
Y203451D01*
X39678Y203568D01*
X39671Y203692D01*
X39656Y203831D01*
X39620Y204107D01*
X39598Y204246D01*
X39569Y204377D01*
X39540Y204501D01*
X39496Y204618D01*
X39452Y204720D01*
X39401Y204807D01*
Y204815D01*
X39387Y204822D01*
X39372Y204844D01*
X39350Y204873D01*
X39285Y204939D01*
X39204Y205019D01*
X39095Y205092D01*
X38971Y205157D01*
X38906Y205187D01*
X38833Y205208D01*
X38753Y205216D01*
X38672Y205223D01*
D02*
G37*
G36*
X24945D02*
X24902D01*
X24872Y205216D01*
X24792Y205201D01*
X24697Y205179D01*
X24588Y205135D01*
X24471Y205070D01*
X24413Y205026D01*
X24355Y204982D01*
X24304Y204924D01*
X24253Y204858D01*
Y204851D01*
X24238Y204837D01*
X24224Y204807D01*
X24202Y204771D01*
X24180Y204713D01*
X24151Y204647D01*
X24129Y204567D01*
X24100Y204472D01*
X24070Y204363D01*
X24041Y204239D01*
X24012Y204100D01*
X23990Y203947D01*
X23968Y203772D01*
X23954Y203583D01*
X23947Y203379D01*
X23939Y203152D01*
Y203138D01*
Y203101D01*
Y203036D01*
X23947Y202948D01*
Y202854D01*
X23954Y202737D01*
X23961Y202613D01*
X23976Y202482D01*
X24012Y202198D01*
X24034Y202059D01*
X24063Y201928D01*
X24092Y201804D01*
X24136Y201687D01*
X24180Y201585D01*
X24231Y201498D01*
Y201490D01*
X24246Y201483D01*
X24282Y201432D01*
X24348Y201366D01*
X24428Y201294D01*
X24537Y201221D01*
X24661Y201155D01*
X24800Y201104D01*
X24872Y201097D01*
X24953Y201090D01*
X24996D01*
X25025Y201097D01*
X25098Y201111D01*
X25201Y201140D01*
X25310Y201191D01*
X25434Y201264D01*
X25492Y201308D01*
X25550Y201366D01*
X25609Y201425D01*
X25667Y201498D01*
Y201505D01*
X25682Y201520D01*
X25696Y201541D01*
X25711Y201578D01*
X25740Y201629D01*
X25762Y201695D01*
X25791Y201767D01*
X25820Y201855D01*
X25842Y201964D01*
X25871Y202081D01*
X25900Y202219D01*
X25922Y202365D01*
X25937Y202540D01*
X25951Y202722D01*
X25966Y202927D01*
Y203152D01*
Y203160D01*
Y203167D01*
Y203204D01*
Y203269D01*
X25959Y203357D01*
Y203451D01*
X25951Y203568D01*
X25944Y203692D01*
X25929Y203831D01*
X25893Y204107D01*
X25871Y204246D01*
X25842Y204377D01*
X25813Y204501D01*
X25769Y204618D01*
X25725Y204720D01*
X25674Y204807D01*
Y204815D01*
X25660Y204822D01*
X25645Y204844D01*
X25623Y204873D01*
X25558Y204939D01*
X25477Y205019D01*
X25368Y205092D01*
X25244Y205157D01*
X25179Y205187D01*
X25106Y205208D01*
X25025Y205216D01*
X24945Y205223D01*
D02*
G37*
G36*
X15140D02*
X15097D01*
X15067Y205216D01*
X14987Y205201D01*
X14892Y205179D01*
X14783Y205135D01*
X14666Y205070D01*
X14608Y205026D01*
X14550Y204982D01*
X14499Y204924D01*
X14448Y204858D01*
Y204851D01*
X14433Y204837D01*
X14419Y204807D01*
X14397Y204771D01*
X14375Y204713D01*
X14346Y204647D01*
X14324Y204567D01*
X14295Y204472D01*
X14266Y204363D01*
X14236Y204239D01*
X14207Y204100D01*
X14185Y203947D01*
X14163Y203772D01*
X14149Y203583D01*
X14141Y203379D01*
X14134Y203152D01*
Y203138D01*
Y203101D01*
Y203036D01*
X14141Y202948D01*
Y202854D01*
X14149Y202737D01*
X14156Y202613D01*
X14171Y202482D01*
X14207Y202198D01*
X14229Y202059D01*
X14258Y201928D01*
X14287Y201804D01*
X14331Y201687D01*
X14375Y201585D01*
X14426Y201498D01*
Y201490D01*
X14440Y201483D01*
X14477Y201432D01*
X14543Y201366D01*
X14623Y201294D01*
X14732Y201221D01*
X14856Y201155D01*
X14995Y201104D01*
X15067Y201097D01*
X15147Y201090D01*
X15191D01*
X15220Y201097D01*
X15293Y201111D01*
X15395Y201140D01*
X15505Y201191D01*
X15629Y201264D01*
X15687Y201308D01*
X15745Y201366D01*
X15804Y201425D01*
X15862Y201498D01*
Y201505D01*
X15877Y201520D01*
X15891Y201541D01*
X15906Y201578D01*
X15935Y201629D01*
X15957Y201695D01*
X15986Y201767D01*
X16015Y201855D01*
X16037Y201964D01*
X16066Y202081D01*
X16095Y202219D01*
X16117Y202365D01*
X16132Y202540D01*
X16146Y202722D01*
X16161Y202927D01*
Y203152D01*
Y203160D01*
Y203167D01*
Y203204D01*
Y203269D01*
X16154Y203357D01*
Y203451D01*
X16146Y203568D01*
X16139Y203692D01*
X16124Y203831D01*
X16088Y204107D01*
X16066Y204246D01*
X16037Y204377D01*
X16008Y204501D01*
X15964Y204618D01*
X15920Y204720D01*
X15869Y204807D01*
Y204815D01*
X15855Y204822D01*
X15840Y204844D01*
X15818Y204873D01*
X15753Y204939D01*
X15672Y205019D01*
X15563Y205092D01*
X15439Y205157D01*
X15373Y205187D01*
X15301Y205208D01*
X15220Y205216D01*
X15140Y205223D01*
D02*
G37*
G36*
X46553Y214534D02*
X45109D01*
Y212734D01*
X46465D01*
X46516Y212741D01*
X46567D01*
X46626Y212748D01*
X46764Y212763D01*
X46917Y212792D01*
X47070Y212836D01*
X47209Y212894D01*
X47275Y212931D01*
X47326Y212974D01*
X47340Y212989D01*
X47369Y213018D01*
X47413Y213076D01*
X47464Y213149D01*
X47515Y213244D01*
X47559Y213361D01*
X47588Y213492D01*
X47603Y213645D01*
Y213652D01*
Y213660D01*
Y213696D01*
X47595Y213762D01*
X47581Y213835D01*
X47566Y213915D01*
X47537Y214009D01*
X47493Y214097D01*
X47442Y214184D01*
X47435Y214192D01*
X47413Y214221D01*
X47377Y214257D01*
X47333Y214308D01*
X47267Y214359D01*
X47194Y214403D01*
X47114Y214447D01*
X47019Y214483D01*
X47012D01*
X46983Y214491D01*
X46939Y214498D01*
X46881Y214512D01*
X46793Y214520D01*
X46684Y214527D01*
X46553Y214534D01*
D02*
G37*
G36*
X41851D02*
X40407D01*
Y212734D01*
X41763D01*
X41814Y212741D01*
X41865D01*
X41924Y212748D01*
X42062Y212763D01*
X42215Y212792D01*
X42368Y212836D01*
X42507Y212894D01*
X42573Y212931D01*
X42624Y212974D01*
X42638Y212989D01*
X42667Y213018D01*
X42711Y213076D01*
X42762Y213149D01*
X42813Y213244D01*
X42857Y213361D01*
X42886Y213492D01*
X42901Y213645D01*
Y213652D01*
Y213660D01*
Y213696D01*
X42893Y213762D01*
X42879Y213835D01*
X42864Y213915D01*
X42835Y214009D01*
X42791Y214097D01*
X42740Y214184D01*
X42733Y214192D01*
X42711Y214221D01*
X42675Y214257D01*
X42631Y214308D01*
X42565Y214359D01*
X42492Y214403D01*
X42412Y214447D01*
X42317Y214483D01*
X42310D01*
X42281Y214491D01*
X42237Y214498D01*
X42179Y214512D01*
X42091Y214520D01*
X41982Y214527D01*
X41851Y214534D01*
D02*
G37*
%LPD*%
D10*
X49606Y306500D02*
X49454Y307460D01*
X49013Y308326D01*
X48326Y309013D01*
X47460Y309454D01*
X46500Y309606D01*
X45540Y309454D01*
X44674Y309013D01*
X43987Y308326D01*
X43546Y307460D01*
X43394Y306500D01*
X43546Y305540D01*
X43987Y304674D01*
X44674Y303987D01*
X45540Y303546D01*
X46500Y303394D01*
X47460Y303546D01*
X48326Y303987D01*
X49013Y304674D01*
X49454Y305540D01*
X49606Y306500D01*
X168000Y307500D02*
X167250Y307933D01*
Y307067D01*
X168000Y307500D01*
X220606Y338000D02*
X220454Y338960D01*
X220013Y339826D01*
X219326Y340513D01*
X218460Y340954D01*
X217500Y341106D01*
X216540Y340954D01*
X215674Y340513D01*
X214987Y339826D01*
X214546Y338960D01*
X214394Y338000D01*
X214546Y337040D01*
X214987Y336174D01*
X215674Y335487D01*
X216540Y335046D01*
X217500Y334894D01*
X218460Y335046D01*
X219326Y335487D01*
X220013Y336174D01*
X220454Y337040D01*
X220606Y338000D01*
X248795Y237500D02*
X248756Y238504D01*
X248638Y239502D01*
X248442Y240487D01*
X248169Y241454D01*
X247821Y242396D01*
X247401Y243309D01*
X246910Y244185D01*
X246352Y245021D01*
X245730Y245810D01*
X245048Y246548D01*
X244310Y247230D01*
X243521Y247852D01*
X242686Y248410D01*
X241809Y248901D01*
X240897Y249321D01*
X239954Y249669D01*
X238987Y249942D01*
X238002Y250138D01*
X237004Y250256D01*
X236000Y250295D01*
X234996Y250256D01*
X233998Y250138D01*
X233013Y249942D01*
X232046Y249669D01*
X231103Y249321D01*
X230191Y248901D01*
X229314Y248410D01*
X228479Y247852D01*
X227690Y247230D01*
X226952Y246548D01*
X226270Y245810D01*
X225648Y245021D01*
X225090Y244185D01*
X224599Y243309D01*
X224179Y242396D01*
X223831Y241454D01*
X223558Y240487D01*
X223362Y239502D01*
X223244Y238504D01*
X223205Y237500D01*
X223244Y236496D01*
X223362Y235498D01*
X223558Y234513D01*
X223831Y233546D01*
X224179Y232604D01*
X224599Y231691D01*
X225090Y230815D01*
X225648Y229979D01*
X226270Y229190D01*
X226952Y228452D01*
X227690Y227770D01*
X228479Y227148D01*
X229314Y226590D01*
X230191Y226099D01*
X231103Y225679D01*
X232046Y225331D01*
X233013Y225058D01*
X233998Y224862D01*
X234996Y224744D01*
X236000Y224705D01*
X237004Y224744D01*
X238002Y224862D01*
X238987Y225058D01*
X239954Y225331D01*
X240897Y225679D01*
X241809Y226099D01*
X242686Y226590D01*
X243521Y227148D01*
X244310Y227770D01*
X245048Y228452D01*
X245730Y229190D01*
X246352Y229979D01*
X246910Y230815D01*
X247401Y231691D01*
X247821Y232604D01*
X248169Y233546D01*
X248442Y234513D01*
X248638Y235498D01*
X248756Y236496D01*
X248795Y237500D01*
X116606Y311000D02*
X116454Y311960D01*
X116013Y312826D01*
X115326Y313513D01*
X114460Y313954D01*
X113500Y314106D01*
X112540Y313954D01*
X111674Y313513D01*
X110987Y312826D01*
X110546Y311960D01*
X110394Y311000D01*
X110546Y310040D01*
X110987Y309174D01*
X111674Y308487D01*
X112540Y308046D01*
X113500Y307894D01*
X114460Y308046D01*
X115326Y308487D01*
X116013Y309174D01*
X116454Y310040D01*
X116606Y311000D01*
X117106Y272500D02*
X116954Y273460D01*
X116513Y274326D01*
X115826Y275013D01*
X114960Y275454D01*
X114000Y275606D01*
X113040Y275454D01*
X112174Y275013D01*
X111487Y274326D01*
X111046Y273460D01*
X110894Y272500D01*
X111046Y271540D01*
X111487Y270674D01*
X112174Y269987D01*
X113040Y269546D01*
X114000Y269394D01*
X114960Y269546D01*
X115826Y269987D01*
X116513Y270674D01*
X116954Y271540D01*
X117106Y272500D01*
X268106Y251500D02*
X267954Y252460D01*
X267513Y253326D01*
X266826Y254013D01*
X265960Y254454D01*
X265000Y254606D01*
X264040Y254454D01*
X263174Y254013D01*
X262487Y253326D01*
X262046Y252460D01*
X261894Y251500D01*
X262046Y250540D01*
X262487Y249674D01*
X263174Y248987D01*
X264040Y248546D01*
X265000Y248394D01*
X265960Y248546D01*
X266826Y248987D01*
X267513Y249674D01*
X267954Y250540D01*
X268106Y251500D01*
X267606Y229000D02*
X267454Y229960D01*
X267013Y230826D01*
X266326Y231513D01*
X265460Y231954D01*
X264500Y232106D01*
X263540Y231954D01*
X262674Y231513D01*
X261987Y230826D01*
X261546Y229960D01*
X261394Y229000D01*
X261546Y228040D01*
X261987Y227174D01*
X262674Y226487D01*
X263540Y226046D01*
X264500Y225894D01*
X265460Y226046D01*
X266326Y226487D01*
X267013Y227174D01*
X267454Y228040D01*
X267606Y229000D01*
X235606Y337500D02*
X235454Y338460D01*
X235013Y339326D01*
X234326Y340013D01*
X233460Y340454D01*
X232500Y340606D01*
X231540Y340454D01*
X230674Y340013D01*
X229987Y339326D01*
X229546Y338460D01*
X229394Y337500D01*
X229546Y336540D01*
X229987Y335674D01*
X230674Y334987D01*
X231540Y334546D01*
X232500Y334394D01*
X233460Y334546D01*
X234326Y334987D01*
X235013Y335674D01*
X235454Y336540D01*
X235606Y337500D01*
X136106Y354500D02*
X135954Y355460D01*
X135513Y356326D01*
X134826Y357013D01*
X133960Y357454D01*
X133000Y357606D01*
X132040Y357454D01*
X131174Y357013D01*
X130487Y356326D01*
X130046Y355460D01*
X129894Y354500D01*
X130046Y353540D01*
X130487Y352674D01*
X131174Y351987D01*
X132040Y351546D01*
X133000Y351394D01*
X133960Y351546D01*
X134826Y351987D01*
X135513Y352674D01*
X135954Y353540D01*
X136106Y354500D01*
X171000Y289500D02*
X181000D01*
X171000Y306500D02*
X181000D01*
X209501Y115002D02*
X214499D01*
X215499Y116001D01*
Y118001D01*
X214499Y119000D01*
X209501D01*
X215499Y124998D02*
Y121000D01*
X211500Y124998D01*
X210501D01*
X209501Y123999D01*
Y121999D01*
X210501Y121000D01*
X174503Y132001D02*
Y137999D01*
X177502D01*
X178501Y136999D01*
Y135000D01*
X177502Y134000D01*
X174503D01*
X176502D02*
X178501Y132001D01*
X180501Y137999D02*
X184499D01*
X182500D01*
Y132001D01*
X186499Y137999D02*
Y132001D01*
Y135000D01*
X190497D01*
Y137999D01*
Y132001D01*
X168504Y102501D02*
Y108499D01*
X171503D01*
X172502Y107499D01*
Y105500D01*
X171503Y104500D01*
X168504D01*
X170503D02*
X172502Y102501D01*
X174502D02*
Y108499D01*
X177501D01*
X178500Y107499D01*
Y105500D01*
X177501Y104500D01*
X174502D01*
X180500Y108499D02*
Y103501D01*
X181499Y102501D01*
X183499D01*
X184498Y103501D01*
Y108499D01*
X190497Y102501D02*
X186498D01*
X190497Y106500D01*
Y107499D01*
X189497Y108499D01*
X187497D01*
X186498Y107499D01*
X171003Y117001D02*
Y122999D01*
X174002D01*
X175002Y121999D01*
Y120000D01*
X174002Y119000D01*
X171003D01*
X173003D02*
X175002Y117001D01*
X177001D02*
Y122999D01*
X180000D01*
X181000Y121999D01*
Y120000D01*
X180000Y119000D01*
X177001D01*
X182999Y122999D02*
Y118001D01*
X183999Y117001D01*
X185998D01*
X186998Y118001D01*
Y122999D01*
X188997Y117001D02*
X190997D01*
X189997D01*
Y122999D01*
X188997Y121999D01*
X231501Y106999D02*
X230502Y107999D01*
X228502D01*
X227503Y106999D01*
Y103001D01*
X228502Y102001D01*
X230502D01*
X231501Y103001D01*
X237499Y106999D02*
X236500Y107999D01*
X234500D01*
X233501Y106999D01*
Y103001D01*
X234500Y102001D01*
X236500D01*
X237499Y103001D01*
Y105000D01*
X235500D01*
X243497Y102001D02*
X239499D01*
X243497Y106000D01*
Y106999D01*
X242498Y107999D01*
X240498D01*
X239499Y106999D01*
X231501Y136999D02*
X230501Y137999D01*
X228502D01*
X227502Y136999D01*
Y133001D01*
X228502Y132001D01*
X230501D01*
X231501Y133001D01*
X237499Y136999D02*
X236499Y137999D01*
X234500D01*
X233500Y136999D01*
Y133001D01*
X234500Y132001D01*
X236499D01*
X237499Y133001D01*
Y135000D01*
X235500D01*
X239498Y132001D02*
X241498D01*
X240498D01*
Y137999D01*
X239498Y136999D01*
X6499Y156598D02*
X4499D01*
X5499D01*
Y151600D01*
X4499Y150600D01*
X3500D01*
X2500Y151600D01*
X12497Y156598D02*
X10497Y155598D01*
X8498Y153599D01*
Y151600D01*
X9498Y150600D01*
X11497D01*
X12497Y151600D01*
Y152599D01*
X11497Y153599D01*
X8498D01*
X45004Y127499D02*
Y123500D01*
X47004Y121501D01*
X49003Y123500D01*
Y127499D01*
X55001Y126499D02*
X54002Y127499D01*
X52002D01*
X51003Y126499D01*
Y122501D01*
X52002Y121501D01*
X54002D01*
X55001Y122501D01*
X60999Y126499D02*
X60000Y127499D01*
X58000D01*
X57001Y126499D01*
Y122501D01*
X58000Y121501D01*
X60000D01*
X60999Y122501D01*
X62999Y124500D02*
X66997D01*
X72996Y126499D02*
X71996Y127499D01*
X69997D01*
X68997Y126499D01*
Y122501D01*
X69997Y121501D01*
X71996D01*
X72996Y122501D01*
Y124500D01*
X70996D01*
X358099Y203098D02*
X356099D01*
X357099D01*
Y198100D01*
X356099Y197100D01*
X355100D01*
X354100Y198100D01*
X364097Y203098D02*
X360098D01*
Y200099D01*
X362097Y201099D01*
X363097D01*
X364097Y200099D01*
Y198100D01*
X363097Y197100D01*
X361098D01*
X360098Y198100D01*
X318005Y176499D02*
Y170501D01*
X321004D01*
X322004Y171501D01*
Y172500D01*
Y173500D01*
X321004Y174500D01*
X318005D01*
X325003D02*
X327002D01*
X328002Y173500D01*
Y170501D01*
X325003D01*
X324003Y171501D01*
X325003Y172500D01*
X328002D01*
X331001Y175499D02*
Y174500D01*
X330001D01*
X332001D01*
X331001D01*
Y171501D01*
X332001Y170501D01*
X335999Y175499D02*
Y174500D01*
X335000D01*
X336999D01*
X335999D01*
Y171501D01*
X336999Y170501D01*
X339998Y173500D02*
X343997D01*
X349995Y175499D02*
X348995Y176499D01*
X346996D01*
X345996Y175499D01*
Y171501D01*
X346996Y170501D01*
X348995D01*
X349995Y171501D01*
Y173500D01*
X347995D01*
X6499Y101898D02*
X4499D01*
X5499D01*
Y96900D01*
X4499Y95900D01*
X3500D01*
X2500Y96900D01*
X11497Y95900D02*
Y101898D01*
X8498Y98899D01*
X12497D01*
X45502Y73499D02*
X47502D01*
X46502D01*
Y67501D01*
X45502D01*
X47502D01*
X54500D02*
X50501D01*
X54500Y71500D01*
Y72499D01*
X53500Y73499D01*
X51500D01*
X50501Y72499D01*
X60498D02*
X59498Y73499D01*
X57499D01*
X56499Y72499D01*
Y68501D01*
X57499Y67501D01*
X59498D01*
X60498Y68501D01*
X130400Y367098D02*
X134399D01*
X132399D01*
Y361100D01*
X136398D02*
Y367098D01*
X139397D01*
X140397Y366098D01*
Y364099D01*
X139397Y363099D01*
X136398D01*
X142396Y366098D02*
X143396Y367098D01*
X145395D01*
X146395Y366098D01*
Y365099D01*
X145395Y364099D01*
X146395Y363099D01*
Y362100D01*
X145395Y361100D01*
X143396D01*
X142396Y362100D01*
Y363099D01*
X143396Y364099D01*
X142396Y365099D01*
Y366098D01*
X143396Y364099D02*
X145395D01*
X209003Y349999D02*
X213001D01*
X211002D01*
Y344001D01*
X215001D02*
Y349999D01*
X218000D01*
X218999Y348999D01*
Y347000D01*
X218000Y346000D01*
X215001D01*
X220999Y349999D02*
X224997D01*
Y348999D01*
X220999Y345001D01*
Y344001D01*
X229900Y350098D02*
X233899D01*
X231899D01*
Y344100D01*
X235898D02*
Y350098D01*
X238897D01*
X239897Y349098D01*
Y347099D01*
X238897Y346099D01*
X235898D01*
X245895Y350098D02*
X243896Y349098D01*
X241896Y347099D01*
Y345100D01*
X242896Y344100D01*
X244895D01*
X245895Y345100D01*
Y346099D01*
X244895Y347099D01*
X241896D01*
X38503Y317999D02*
X42501D01*
X40502D01*
Y312001D01*
X44501D02*
Y317999D01*
X47500D01*
X48499Y316999D01*
Y315000D01*
X47500Y314000D01*
X44501D01*
X54497Y317999D02*
X50499D01*
Y315000D01*
X52498Y316000D01*
X53498D01*
X54497Y315000D01*
Y313001D01*
X53498Y312001D01*
X51498D01*
X50499Y313001D01*
X271503Y231999D02*
X275501D01*
X273502D01*
Y226001D01*
X277501D02*
Y231999D01*
X280500D01*
X281499Y230999D01*
Y229000D01*
X280500Y228000D01*
X277501D01*
X286498Y226001D02*
Y231999D01*
X283499Y229000D01*
X287497D01*
X272003Y254999D02*
X276001D01*
X274002D01*
Y249001D01*
X278001D02*
Y254999D01*
X281000D01*
X281999Y253999D01*
Y252000D01*
X281000Y251000D01*
X278001D01*
X283999Y253999D02*
X284998Y254999D01*
X286998D01*
X287997Y253999D01*
Y253000D01*
X286998Y252000D01*
X285998D01*
X286998D01*
X287997Y251000D01*
Y250001D01*
X286998Y249001D01*
X284998D01*
X283999Y250001D01*
X121503Y276499D02*
X125501D01*
X123502D01*
Y270501D01*
X127501D02*
Y276499D01*
X130500D01*
X131499Y275499D01*
Y273500D01*
X130500Y272500D01*
X127501D01*
X137497Y270501D02*
X133499D01*
X137497Y274500D01*
Y275499D01*
X136498Y276499D01*
X134498D01*
X133499Y275499D01*
X120002Y315999D02*
X124001D01*
X122002D01*
Y310001D01*
X126000D02*
Y315999D01*
X128999D01*
X129999Y314999D01*
Y313000D01*
X128999Y312000D01*
X126000D01*
X131998Y310001D02*
X133998D01*
X132998D01*
Y315999D01*
X131998Y314999D01*
X172501Y285999D02*
Y281001D01*
X173501Y280001D01*
X175500D01*
X176500Y281001D01*
Y285999D01*
X178499Y280001D02*
X180499D01*
X179499D01*
Y285999D01*
X178499Y284999D01*
X181300Y349900D02*
Y355898D01*
X184299D01*
X185299Y354898D01*
Y352899D01*
X184299Y351899D01*
X181300D01*
X183299D02*
X185299Y349900D01*
X187298Y354898D02*
X188298Y355898D01*
X190297D01*
X191297Y354898D01*
Y353899D01*
X190297Y352899D01*
X191297Y351899D01*
Y350900D01*
X190297Y349900D01*
X188298D01*
X187298Y350900D01*
Y351899D01*
X188298Y352899D01*
X187298Y353899D01*
Y354898D01*
X188298Y352899D02*
X190297D01*
X191002Y245001D02*
Y250999D01*
X194001D01*
X195000Y249999D01*
Y248000D01*
X194001Y247000D01*
X191002D01*
X193001D02*
X195000Y245001D01*
X197000Y250999D02*
X200998D01*
Y249999D01*
X197000Y246001D01*
Y245001D01*
X336600Y310700D02*
Y316698D01*
X339599D01*
X340599Y315698D01*
Y313699D01*
X339599Y312699D01*
X336600D01*
X338599D02*
X340599Y310700D01*
X346597Y316698D02*
X344597Y315698D01*
X342598Y313699D01*
Y311700D01*
X343598Y310700D01*
X345597D01*
X346597Y311700D01*
Y312699D01*
X345597Y313699D01*
X342598D01*
X277999Y292002D02*
X272001D01*
Y295001D01*
X273001Y296000D01*
X275000D01*
X276000Y295001D01*
Y292002D01*
Y294001D02*
X277999Y296000D01*
X272001Y301998D02*
Y298000D01*
X275000D01*
X274000Y299999D01*
Y300999D01*
X275000Y301998D01*
X276999D01*
X277999Y300999D01*
Y298999D01*
X276999Y298000D01*
X268499Y311502D02*
X262501D01*
Y314501D01*
X263501Y315500D01*
X265500D01*
X266500Y314501D01*
Y311502D01*
Y313501D02*
X268499Y315500D01*
Y320499D02*
X262501D01*
X265500Y317500D01*
Y321498D01*
X268499Y260502D02*
X262501D01*
Y263501D01*
X263501Y264500D01*
X265500D01*
X266500Y263501D01*
Y260502D01*
Y262501D02*
X268499Y264500D01*
X263501Y266500D02*
X262501Y267499D01*
Y269499D01*
X263501Y270498D01*
X264500D01*
X265500Y269499D01*
Y268499D01*
Y269499D01*
X266500Y270498D01*
X267499D01*
X268499Y269499D01*
Y267499D01*
X267499Y266500D01*
X71502Y269001D02*
Y274999D01*
X74501D01*
X75500Y273999D01*
Y272000D01*
X74501Y271000D01*
X71502D01*
X73501D02*
X75500Y269001D01*
X81498D02*
X77500D01*
X81498Y273000D01*
Y273999D01*
X80499Y274999D01*
X78499D01*
X77500Y273999D01*
X96300Y299400D02*
Y305398D01*
X99299D01*
X100299Y304398D01*
Y302399D01*
X99299Y301399D01*
X96300D01*
X98299D02*
X100299Y299400D01*
X102298D02*
X104297D01*
X103298D01*
Y305398D01*
X102298Y304398D01*
X152500Y367898D02*
Y361900D01*
X156499D01*
X158498D02*
X160497D01*
X159498D01*
Y367898D01*
X158498Y366898D01*
X163496Y367898D02*
Y361900D01*
X166496D01*
X167495Y362900D01*
Y363899D01*
X166496Y364899D01*
X163496D01*
X166496D01*
X167495Y365899D01*
Y366898D01*
X166496Y367898D01*
X163496D01*
X358099Y262598D02*
X356099D01*
X357099D01*
Y257600D01*
X356099Y256600D01*
X355100D01*
X354100Y257600D01*
X360098Y261598D02*
X361098Y262598D01*
X363097D01*
X364097Y261598D01*
Y260599D01*
X363097Y259599D01*
X362097D01*
X363097D01*
X364097Y258599D01*
Y257600D01*
X363097Y256600D01*
X361098D01*
X360098Y257600D01*
X314505Y214001D02*
X317504D01*
X318504Y215001D01*
X317504Y216000D01*
X315505D01*
X314505Y217000D01*
X315505Y218000D01*
X318504D01*
X321503D02*
X323502D01*
X324502Y217000D01*
Y214001D01*
X321503D01*
X320503Y215001D01*
X321503Y216000D01*
X324502D01*
X326501Y214001D02*
X328501D01*
X327501D01*
Y219999D01*
X326501D01*
X331500Y214001D02*
X333499D01*
X332499D01*
Y218000D01*
X331500D01*
X340497Y219999D02*
Y214001D01*
X337498D01*
X336498Y215001D01*
Y217000D01*
X337498Y218000D01*
X340497D01*
X343496D02*
X345495D01*
X346495Y217000D01*
Y214001D01*
X343496D01*
X342496Y215001D01*
X343496Y216000D01*
X346495D01*
X358099Y342198D02*
X356099D01*
X357099D01*
Y337200D01*
X356099Y336200D01*
X355100D01*
X354100Y337200D01*
X364097Y336200D02*
X360098D01*
X364097Y340199D01*
Y341198D01*
X363097Y342198D01*
X361098D01*
X360098Y341198D01*
X334502Y279999D02*
Y274001D01*
X337501D01*
X338501Y275001D01*
Y276000D01*
Y277000D01*
X337501Y278000D01*
X334502D01*
X341500D02*
X343499D01*
X344499Y277000D01*
Y274001D01*
X341500D01*
X340500Y275001D01*
X341500Y276000D01*
X344499D01*
X347498Y278999D02*
Y278000D01*
X346498D01*
X348498D01*
X347498D01*
Y275001D01*
X348498Y274001D01*
X6499Y336098D02*
X4499D01*
X5499D01*
Y331100D01*
X4499Y330100D01*
X3500D01*
X2500Y331100D01*
X8498Y330100D02*
X10497D01*
X9498D01*
Y336098D01*
X8498Y335098D01*
X1511Y277001D02*
X4510D01*
X5510Y278001D01*
X4510Y279000D01*
X2510D01*
X1511Y280000D01*
X2510Y281000D01*
X5510D01*
X8509Y277001D02*
X10508D01*
X11508Y278001D01*
Y280000D01*
X10508Y281000D01*
X8509D01*
X7509Y280000D01*
Y278001D01*
X8509Y277001D01*
X13507D02*
X15506D01*
X14507D01*
Y282999D01*
X13507D01*
X19505Y281000D02*
X21504D01*
X22504Y280000D01*
Y277001D01*
X19505D01*
X18505Y278001D01*
X19505Y279000D01*
X22504D01*
X24503Y281000D02*
Y277001D01*
Y279000D01*
X25503Y280000D01*
X26503Y281000D01*
X27502D01*
X30501Y277001D02*
Y282999D01*
X33500D01*
X34500Y281999D01*
Y280000D01*
X33500Y279000D01*
X30501D01*
X37499Y281000D02*
X39499D01*
X40498Y280000D01*
Y277001D01*
X37499D01*
X36500Y278001D01*
X37499Y279000D01*
X40498D01*
X42498Y277001D02*
Y281000D01*
X45497D01*
X46496Y280000D01*
Y277001D01*
X51495D02*
X49495D01*
X48496Y278001D01*
Y280000D01*
X49495Y281000D01*
X51495D01*
X52494Y280000D01*
Y279000D01*
X48496D01*
X54494Y277001D02*
X56493D01*
X55493D01*
Y282999D01*
X54494D01*
X59492D02*
X61491D01*
X60492D01*
Y277001D01*
X59492D01*
X61491D01*
X64490D02*
Y281000D01*
X67489D01*
X68489Y280000D01*
Y277001D01*
X211002Y252499D02*
Y246501D01*
X214001D01*
X215000Y247501D01*
Y251499D01*
X214001Y252499D01*
X211002D01*
X220998Y246501D02*
X217000D01*
X220998Y250500D01*
Y251499D01*
X219999Y252499D01*
X217999D01*
X217000Y251499D01*
X70502Y308499D02*
Y302501D01*
X73501D01*
X74501Y303501D01*
Y307499D01*
X73501Y308499D01*
X70502D01*
X76500Y302501D02*
X78500D01*
X77500D01*
Y308499D01*
X76500Y307499D01*
X81499Y308499D02*
Y302501D01*
X84498D01*
X85498Y303501D01*
Y304500D01*
X84498Y305500D01*
X81499D01*
X84498D01*
X85498Y306500D01*
Y307499D01*
X84498Y308499D01*
X81499D01*
X246000Y323499D02*
X245001Y324499D01*
X243001D01*
X242002Y323499D01*
Y319501D01*
X243001Y318501D01*
X245001D01*
X246000Y319501D01*
X250999Y318501D02*
Y324499D01*
X248000Y321500D01*
X251998D01*
X214000Y239499D02*
X213001Y240499D01*
X211001D01*
X210002Y239499D01*
Y235501D01*
X211001Y234501D01*
X213001D01*
X214000Y235501D01*
X216000Y239499D02*
X216999Y240499D01*
X218999D01*
X219998Y239499D01*
Y238500D01*
X218999Y237500D01*
X217999D01*
X218999D01*
X219998Y236500D01*
Y235501D01*
X218999Y234501D01*
X216999D01*
X216000Y235501D01*
X145501Y285000D02*
X144501Y284000D01*
Y282001D01*
X145501Y281001D01*
X149499D01*
X150499Y282001D01*
Y284000D01*
X149499Y285000D01*
X150499Y286999D02*
Y288999D01*
Y287999D01*
X144501D01*
X145501Y286999D01*
X0Y0D02*
Y393701D01*
X393701D01*
Y0D02*
Y393701D01*
X0Y0D02*
X393701D01*
D11*
X218394Y124500D02*
X217606D01*
X218394D01*
X53500Y288000D02*
Y298000D01*
X79500Y288000D02*
Y298000D01*
X53500Y288000D02*
X79500D01*
X74500D02*
Y298000D01*
X52500Y293000D02*
X53500D01*
X79500D02*
X80500D01*
X53500Y298000D02*
X79500D01*
X1890Y145185D02*
X40472D01*
X1890Y105815D02*
Y145185D01*
Y125500D02*
X40472D01*
X1890Y105815D02*
X40472D01*
X6221D02*
Y145185D01*
X30630Y105815D02*
Y145185D01*
X353528Y154315D02*
X392110D01*
Y193685D01*
X353528Y174000D02*
X392110D01*
X353528Y193685D02*
X392110D01*
X387779Y154315D02*
Y193685D01*
X363370Y154315D02*
Y193685D01*
X1890Y90528D02*
X40472D01*
X1890Y51157D02*
Y90528D01*
Y70842D02*
X40472D01*
X1890Y51157D02*
X40472D01*
X6221D02*
Y90528D01*
X30630Y51157D02*
Y90528D01*
X233500Y279500D02*
Y305500D01*
X238500D02*
Y306500D01*
Y278500D02*
Y279500D01*
X233500Y300500D02*
X243500D01*
Y279500D02*
Y305500D01*
X233500D02*
X243500D01*
X233500Y279500D02*
X243500D01*
X191000Y253200D02*
Y260800D01*
X208000Y253200D02*
Y260800D01*
X191000D02*
X208000D01*
X191000Y253200D02*
X208000D01*
X152700Y276500D02*
X160300D01*
X152700Y293500D02*
X160300D01*
X152700Y276500D02*
Y293500D01*
X160300Y276500D02*
Y293500D01*
X261200Y292000D02*
X268800D01*
X261200Y309000D02*
X268800D01*
X261200Y292000D02*
Y309000D01*
X268800Y292000D02*
Y309000D01*
X180700Y346500D02*
X188300D01*
X180700Y329500D02*
X188300D01*
Y346500D01*
X180700Y329500D02*
Y346500D01*
X240000Y317200D02*
Y324800D01*
X223000Y317200D02*
Y324800D01*
Y317200D02*
X240000D01*
X223000Y324800D02*
X240000D01*
X248500Y280500D02*
Y306500D01*
X253500D02*
Y307500D01*
Y279500D02*
Y280500D01*
X248500Y301500D02*
X258500D01*
Y280500D02*
Y306500D01*
X248500D02*
X258500D01*
X248500Y280500D02*
X258500D01*
X353528Y213815D02*
X392110D01*
Y253185D01*
X353528Y233500D02*
X392110D01*
X353528Y253185D02*
X392110D01*
X387779Y213815D02*
Y253185D01*
X363370Y213815D02*
Y253185D01*
X353528Y273787D02*
X392110D01*
Y332842D01*
X353528Y293472D02*
X392110D01*
X353528Y313158D02*
X392110D01*
X353528Y332842D02*
X392110D01*
X387779Y273787D02*
Y332842D01*
X363370Y273787D02*
Y332842D01*
X217000Y279500D02*
X227000D01*
X217000Y305500D02*
X227000D01*
Y279500D02*
Y305500D01*
X217000Y300500D02*
X227000D01*
X222000Y278500D02*
Y279500D01*
Y305500D02*
Y306500D01*
X217000Y279500D02*
Y305500D01*
X250000Y252000D02*
Y262000D01*
X224000Y252000D02*
Y262000D01*
X250000D01*
X229000Y252000D02*
Y262000D01*
X250000Y257000D02*
X251000D01*
X223000D02*
X224000D01*
Y252000D02*
X250000D01*
X261200Y272500D02*
X268800D01*
X261200Y289500D02*
X268800D01*
X261200Y272500D02*
Y289500D01*
X268800Y272500D02*
Y289500D01*
X270700Y272500D02*
X278300D01*
X270700Y289500D02*
X278300D01*
X270700Y272500D02*
Y289500D01*
X278300Y272500D02*
Y289500D01*
X30630Y285315D02*
Y324685D01*
X6221Y285315D02*
Y324685D01*
X1890Y285315D02*
X40472D01*
X1890Y305000D02*
X40472D01*
X1890Y285315D02*
Y324685D01*
X40472D01*
X86000Y276300D02*
X103000D01*
X86000Y268700D02*
X103000D01*
X86000D02*
Y276300D01*
X103000Y268700D02*
Y276300D01*
X95700Y279000D02*
Y296000D01*
X103300Y279000D02*
Y296000D01*
X95700Y279000D02*
X103300D01*
X95700Y296000D02*
X103300D01*
X336000Y299700D02*
X353000D01*
X336000Y307300D02*
X353000D01*
Y299700D02*
Y307300D01*
X336000Y299700D02*
Y307300D01*
X247668Y267999D02*
Y264001D01*
X249668D01*
X250334Y264667D01*
Y267333D01*
X249668Y267999D01*
X247668D01*
X254333D02*
X251667D01*
Y266000D01*
X253000Y266666D01*
X253666D01*
X254333Y266000D01*
Y264667D01*
X253666Y264001D01*
X252334D01*
X251667Y264667D01*
X255666Y267999D02*
Y264001D01*
X257665D01*
X258332Y264667D01*
Y265334D01*
X257665Y266000D01*
X255666D01*
X257665D01*
X258332Y266666D01*
Y267333D01*
X257665Y267999D01*
X255666D01*
X233168D02*
Y264001D01*
X235168D01*
X235834Y264667D01*
Y267333D01*
X235168Y267999D01*
X233168D01*
X237167Y267333D02*
X237834Y267999D01*
X239166D01*
X239833Y267333D01*
Y266666D01*
X239166Y266000D01*
X238500D01*
X239166D01*
X239833Y265334D01*
Y264667D01*
X239166Y264001D01*
X237834D01*
X237167Y264667D01*
X241166Y267999D02*
Y264001D01*
X243165D01*
X243832Y264667D01*
Y265334D01*
X243165Y266000D01*
X241166D01*
X243165D01*
X243832Y266666D01*
Y267333D01*
X243165Y267999D01*
X241166D01*
X216168D02*
Y264001D01*
X218168D01*
X218834Y264667D01*
Y267333D01*
X218168Y267999D01*
X216168D01*
X222166Y264001D02*
Y267999D01*
X220167Y266000D01*
X222833D01*
X224166Y267999D02*
Y264001D01*
X226165D01*
X226832Y264667D01*
Y265334D01*
X226165Y266000D01*
X224166D01*
X226165D01*
X226832Y266666D01*
Y267333D01*
X226165Y267999D01*
X224166D01*
D12*
X219173Y116673D02*
Y118337D01*
Y116673D02*
X220837D01*
X224163D02*
X225827D01*
Y118337D01*
Y121663D02*
Y123327D01*
X224163D02*
X225827D01*
X219173D02*
X220837D01*
X219173Y121663D02*
Y123327D01*
X151720Y358622D02*
X179279D01*
Y310378D02*
Y358622D01*
X151720Y310378D02*
X179279D01*
X151720Y310878D02*
Y358622D01*
X240986Y228972D02*
Y232400D01*
X242700Y230686D02*
X239272D01*
D13*
X77000Y293000D02*
D03*
X226500Y257000D02*
D03*
D14*
X238500Y303000D02*
D03*
X253500Y304000D02*
D03*
X222000Y303000D02*
D03*
M02*
